<?xml version="1.0" encoding="utf-8"?>
<!-- Generator: Adobe Illustrator 14.0.0, SVG Export Plug-In . SVG Version: 6.00 Build 43363)  -->
<!DOCTYPE svg PUBLIC "-//W3C//DTD SVG 1.1//EN" "http://www.w3.org/Graphics/SVG/1.1/DTD/svg11.dtd">
<svg version="1.1" id="Calque_1" xmlns="http://www.w3.org/2000/svg" xmlns:xlink="http://www.w3.org/1999/xlink" x="0px" y="0px"
	 width="97.49px" height="148.047px" viewBox="0 0 97.49 148.047" enable-background="new 0 0 97.49 148.047" xml:space="preserve">
<g>
	<path fill="#FFFFFF" d="M52.501,148.047H22.833c-2.485,0-4.5-2.015-4.5-4.5v-17c0-3.232-3.803-7.409-7.48-11.448
		C5.766,109.511,0,103.179,0,95.213c0-12.67,10.528-29.649,14.89-36.66l3.085,12.132C13.977,77.113,9,85.114,9,95.213
		c0,4.482,4.325,9.232,8.507,13.826c4.831,5.306,9.826,10.792,9.826,17.508v12.5h23.238c4.674-5.018,10.851-12.719,11.518-16.049
		c0.606-3.039-0.531-9.508-1.536-15.214c-0.852-4.842-1.732-9.848-1.883-14.077c-0.153-4.28-0.444-8.139-0.727-11.87
		c-0.313-4.158-0.61-8.086-0.61-11.624c0-3.995-2.258-7.5-4.832-7.5c-4.41,0-6.189,3.15-7.111,6.84l-5.857,23.085
		c-0.519,2.079-2.424,3.493-4.573,3.404c-2.14-0.099-3.914-1.693-4.239-3.811l-4.667-30.334c-0.378-2.457,1.307-4.754,3.763-5.132
		c2.465-0.383,4.754,1.307,5.132,3.763l1.271,8.26l0.917-3.667c2.556-10.226,9.993-11.408,15.365-11.408
		c7.627,0,13.832,7.402,13.832,16.5c0,3.198,0.271,6.789,0.585,10.946c0.275,3.641,0.587,7.768,0.746,12.227
		c0.128,3.606,0.954,8.3,1.753,12.839c1.252,7.117,2.436,13.84,1.497,18.538c-1.519,7.587-12.92,19.595-15.19,21.925
		C54.877,147.557,53.715,148.047,52.501,148.047L52.501,148.047z"/>
	<path fill="#FFFFFF" d="M97.49,83.187L64.5,88.88c0.001,0-8.333-32.666-8.333-32.666L42.5,63.88l-5.667,17.667
		c0,0-3.887,7.429-5.193,11.506L12.177,14.239L80.032,0L97.49,83.187z"/>
</g>
</svg>
