<?xml version="1.0" encoding="utf-8"?>
<!-- Generator: Adobe Illustrator 14.0.0, SVG Export Plug-In . SVG Version: 6.00 Build 43363)  -->
<!DOCTYPE svg PUBLIC "-//W3C//DTD SVG 1.1//EN" "http://www.w3.org/Graphics/SVG/1.1/DTD/svg11.dtd">
<svg version="1.1" id="Calque_1" xmlns="http://www.w3.org/2000/svg" xmlns:xlink="http://www.w3.org/1999/xlink" x="0px" y="0px"
	 width="68.611px" height="53.118px" viewBox="0 0 68.611 53.118" enable-background="new 0 0 68.611 53.118" xml:space="preserve">
<g>
	<path fill="#4E4E4E" d="M41.77,53.118L41.77,53.118c-2.128,0-4.297-0.971-6.827-3.055c-0.221-0.182-22.354-18.482-25.067-21.441
		l-0.86-0.938l10.324-17.129l5.258,3.723c1.357,1.197,3.85,2.986,5.137,3.221l1.128,0.195c2.018,0.342,3.925,0.664,5.776,1.693
		c2.167,1.203,10.366,7.629,15.351,11.654c2.551,2.061,3.923,4.191,4.077,6.332c0.131,1.85-0.708,3.08-1.027,3.473
		c-0.488,0.695-4.678,6.613-7.811,9.744C45.554,52.268,43.714,53.118,41.77,53.118L41.77,53.118z M13.281,27.2
		c4.241,3.957,19.416,16.604,23.827,20.234c1.861,1.533,3.386,2.279,4.661,2.279h0.001c1.023,0,2.023-0.502,3.053-1.529
		c3.048-3.049,7.425-9.285,7.468-9.348l0.147-0.184c0.494-0.623,0.555-2.426-2.587-4.965c-5.983-4.83-13.178-10.387-14.865-11.324
		c-1.343-0.746-2.894-1.01-4.692-1.314l-1.169-0.203c-2.607-0.473-6.056-3.383-6.708-3.951l-2.049-1.447L13.281,27.2L13.281,27.2z"
		/>
	<path fill="#4E4E4E" d="M44.003,10.981c-0.744,0.85-1.276,2.127-3.085,2.127s-6.383-0.639-7.873,0.213
		c-1.488,0.852-2.021,2.021-2.872,4.576c-0.851,2.553-3.191,4.893-4.894,6.062c-1.702,1.172-3.191,3.191-2.341,4.469
		c0.852,1.277,3.617,1.277,5.213,0.639s6.277-5.639,6.916-6.277c0.638-0.637,1.169-1.488,1.489-1.277
		c0.318,0.213,13.404,11.811,14.256,11.49c0.852-0.318,1.277-2.766,2.554-4.467c1.276-1.703,5-5.959,5-5.959L44.003,10.981z"/>
	<path fill="#4E4E4E" d="M17.957,38.379c2.627-3.002,4.496-5.152,7.05-4.939s8.121,5.393,10.675,7.52
		c2.553,2.129,2.949,3.689,1.915,6.277c-1.147,2.871-2.687,4.195-4.921,4.088c-2.234-0.105-9.292-6.137-10.888-7.414
		C20.192,42.635,16.467,40.081,17.957,38.379z"/>
	<g>
		<path fill="#4E4E4E" d="M11.044,28.1c-1,1.367-2.77,1.775-3.95,0.91l-5.249-3.844c-1.185-0.865-1.329-2.676-0.329-4.043
			L12.597,5.989c1.001-1.367,2.772-1.774,3.952-0.909l5.25,3.844c1.184,0.865,1.328,2.675,0.327,4.042L11.044,28.1z"/>
		<path fill="#4E4E4E" d="M8.515,30.315c-0.707,0-1.372-0.213-1.925-0.619l-5.248-3.844c-0.774-0.564-1.247-1.438-1.33-2.451
			c-0.077-0.965,0.213-1.953,0.817-2.779L11.911,5.486c1.237-1.688,3.626-2.2,5.143-1.093L22.3,8.237
			c0.774,0.566,1.248,1.438,1.33,2.451c0.079,0.967-0.212,1.954-0.817,2.78L11.732,28.604C10.947,29.676,9.744,30.315,8.515,30.315
			L8.515,30.315z M15.127,5.477c-0.678,0-1.384,0.389-1.844,1.014L2.204,21.627c-0.364,0.496-0.539,1.078-0.494,1.639
			c0.041,0.512,0.269,0.943,0.638,1.213l5.249,3.846c0.773,0.564,2.072,0.215,2.762-0.727l11.081-15.135
			c0.365-0.498,0.539-1.078,0.495-1.639c-0.043-0.514-0.268-0.945-0.638-1.215l-5.249-3.844C15.789,5.577,15.471,5.477,15.127,5.477
			L15.127,5.477z"/>
	</g>
	<path fill="#4E4E4E" d="M60.413,25.629c-1.088,0-2.182-0.383-3.078-1.08L42.516,13.045c-0.97-0.754-1.631-1.803-1.862-2.955
		c-0.243-1.225,0.034-2.469,0.765-3.41l3.994-5.139c1.42-1.826,4.43-2.071,6.436-0.514l14.814,11.507
		c2.077,1.61,2.572,4.466,1.104,6.362l-3.995,5.141C62.986,25.049,61.761,25.629,60.413,25.629L60.413,25.629z M48.771,3.354
		c-0.17,0-0.483,0.035-0.669,0.275l-3.994,5.14c-0.161,0.208-0.151,0.47-0.115,0.653c0.069,0.346,0.293,0.686,0.611,0.934
		L59.422,21.86c0.303,0.236,0.654,0.365,0.99,0.365c0.17,0,0.482-0.037,0.669-0.275l3.992-5.139
		c0.275-0.354,0.139-1.094-0.496-1.588L49.761,3.717C49.459,3.483,49.108,3.354,48.771,3.354L48.771,3.354z"/>
</g>
</svg>
