<?xml version="1.0" encoding="utf-8"?>
<!-- Generator: Adobe Illustrator 14.0.0, SVG Export Plug-In . SVG Version: 6.00 Build 43363)  -->
<!DOCTYPE svg PUBLIC "-//W3C//DTD SVG 1.1//EN" "http://www.w3.org/Graphics/SVG/1.1/DTD/svg11.dtd">
<svg version="1.1" id="Calque_1" xmlns="http://www.w3.org/2000/svg" xmlns:xlink="http://www.w3.org/1999/xlink" x="0px" y="0px"
	 width="46.431px" height="55.929px" viewBox="0 0 46.431 55.929" enable-background="new 0 0 46.431 55.929" xml:space="preserve">
<path fill="#4E4E4E" d="M23.216,55.554c-8.716,0-13.52-3.645-14.428-4.405c-1.962-0.006-7.961-0.267-8.281-3.172
	c-1.811-16.514,15.649-20.42,15.826-20.458l0.43-0.091l0.146,0.414c0.047,0.129,1.229,3.221,6.148,3.221l0.151-0.001l0.168,0.001
	c4.954,0,6.111-3.127,6.123-3.158l0.146-0.413l0.428,0.09c0.177,0.037,17.662,3.88,15.851,20.396
	c-0.319,2.905-6.319,3.166-8.281,3.172C36.735,51.909,31.932,55.554,23.216,55.554L23.216,55.554z M9.165,50.146l0.146,0.134
	c0.047,0.043,4.793,4.274,13.902,4.274h0.002c9.111,0,13.856-4.231,13.903-4.274l0.146-0.133l0.302,0.003
	c2.46,0,7.165-0.478,7.363-2.282c1.586-14.465-12.117-18.578-14.676-19.218c-0.528,0.994-2.286,3.413-6.877,3.413l-0.167-0.001
	l-0.153,0.001c-4.6,0-6.371-2.468-6.902-3.474c-2.563,0.65-16.239,4.817-14.653,19.278c0.198,1.805,4.902,2.282,7.362,2.282
	L9.165,50.146L9.165,50.146z"/>
<g>
	<path fill="#4E4E4E" d="M23.216,55.429h-0.002c-8.799,0-13.583-3.726-14.38-4.403c-1.885-0.003-7.893-0.235-8.204-3.062
		C-1.168,31.56,16.184,27.678,16.359,27.64l0.32-0.067l0.112,0.309c0.049,0.136,1.252,3.306,6.267,3.306h0.151h0.166
		c5.013,0,6.193-3.11,6.24-3.242l0.111-0.308l0.321,0.065c0.175,0.037,17.553,3.856,15.754,20.261
		c-0.312,2.826-6.318,3.06-8.204,3.062C36.799,51.703,32.016,55.429,23.216,55.429L23.216,55.429z M9.118,50.27l0.11,0.101
		c0.047,0.043,4.821,4.307,13.986,4.307h0.002c9.165,0,13.938-4.264,13.985-4.307l0.11-0.1l0.257,0.002
		c2.682,0,7.277-0.504,7.485-2.392c1.598-14.574-12.627-18.801-14.868-19.373c-0.454,0.906-2.142,3.431-6.811,3.431l-0.164-0.001
		l-0.153,0.001c-4.682,0-6.383-2.58-6.838-3.494C13.9,29.017-0.24,33.127,1.378,47.881c0.208,1.888,4.802,2.392,7.484,2.392
		L9.118,50.27L9.118,50.27z"/>
	<path fill="#4E4E4E" d="M23.216,55.929c-8.535,0-13.375-3.439-14.563-4.404c-2.59-0.021-8.181-0.426-8.519-3.507
		c-1.838-16.767,15.939-20.827,16.12-20.866l0.749-0.158l0.26,0.718c0.044,0.121,1.135,2.976,5.797,2.976h0.317
		c4.672,0,5.726-2.791,5.769-2.91l0.258-0.716l0.745,0.151c0.184,0.039,17.993,4.008,16.151,20.806
		c-0.34,3.081-5.93,3.486-8.52,3.507C36.589,52.489,31.75,55.929,23.216,55.929L23.216,55.929z M9.31,49.768l0.255,0.233
		c0.044,0.04,4.752,4.176,13.648,4.176c8.907,0,13.605-4.135,13.651-4.177l0.254-0.23l0.453,0.003c3.28,0,6.845-0.683,6.984-1.946
		c1.475-13.453-10.766-17.802-14.124-18.735c-0.681,1.11-2.607,3.348-7.057,3.348l-0.167-0.001l-0.147,0.001
		c-4.468,0-6.408-2.287-7.091-3.413C12.615,29.93,0.379,34.187,1.875,47.826c0.139,1.265,3.704,1.946,6.987,1.946L9.31,49.768
		L9.31,49.768z"/>
</g>
<g>
	<path fill="#4E4E4E" d="M23.124,28.089c-1.794,0-3.45-0.766-4.921-2.275c-3.587-3.683-5-10.601-4.928-13.317
		c0.111-4.219,2.329-11.388,9.937-11.495L23.354,1c7.531,0,9.968,8.317,9.968,12.345c0,5.808-4.028,14.648-10.101,14.743
		L23.124,28.089L23.124,28.089z M23.354,1.751l-0.132,0.001c-7.038,0.101-9.092,6.813-9.196,10.765
		c-0.073,2.771,1.44,9.411,4.715,12.771c1.324,1.36,2.799,2.049,4.383,2.049h0.086c5.43-0.085,9.36-8.417,9.36-13.992
		C32.57,9.563,30.317,1.751,23.354,1.751L23.354,1.751z"/>
	<path fill="#4E4E4E" d="M23.128,29.089h-0.005c-2.074,0-3.971-0.867-5.638-2.577c-3.84-3.942-5.289-11.091-5.211-14.042
		c0.121-4.575,2.557-12.351,10.922-12.469L23.347,0c8.294,0,10.975,8.99,10.975,13.345c0,6.349-4.318,15.638-11.085,15.743
		L23.128,29.089L23.128,29.089z M23.357,2.751l-0.128,0.001c-6.274,0.09-8.109,6.196-8.204,9.791
		c-0.067,2.549,1.396,8.933,4.432,12.047c1.128,1.159,2.362,1.747,3.667,1.747c4.85-0.074,8.447-7.933,8.447-12.992
		C31.57,9.889,29.562,2.754,23.357,2.751L23.357,2.751z"/>
</g>
<path fill="#4E4E4E" d="M23.298,36.509c-5.019,0-9.276-2.579-11.389-6.902l1.351-0.66c1.882,3.851,5.541,6.06,10.038,6.06
	c4.221,0,8.081-2.273,10.073-5.932l1.32,0.721C32.436,33.936,28.071,36.509,23.298,36.509L23.298,36.509z"/>
<path fill="#4E4E4E" d="M42.759,50.479l-0.749-0.079c0.079-0.732,0.118-1.479,0.118-2.219c0-8.038-3.798-14.118-9.913-15.864
	l0.206-0.723c6.452,1.842,10.458,8.198,10.458,16.587C42.88,48.947,42.838,49.721,42.759,50.479L42.759,50.479z"/>
<path fill="#4E4E4E" d="M3.854,50.479c-0.082-0.754-0.122-1.527-0.122-2.298c0-8.326,3.968-14.632,10.355-16.456l0.207,0.723
	c-6.051,1.729-9.811,7.757-9.811,15.733c0,0.743,0.04,1.49,0.118,2.218L3.854,50.479L3.854,50.479z"/>
<path fill="#4E4E4E" d="M14.088,32.142c-0.023-0.773-0.611-1.361-0.611-1.361l-1.222-1.387l-2.607,1.551l-3.665,2.749l-2.42,2.937
	l-1.762,3.147L1.144,43.02l-0.188,4.182l0.799,1.763l1.503,0.775l0.846,0.164v-1.526l0.188-2.914l0.329-2.42l0.846-2.372
	l0.893-2.209l1.574-2.16l1.527-1.621l1.292-1.011l1.668-0.775L14.088,32.142z"/>
<path fill="#4E4E4E" d="M32.529,32.142c0.023-0.773,0.612-1.361,0.612-1.361l1.222-1.387l2.606,1.551l3.666,2.749l2.42,2.937
	l1.763,3.147l0.657,3.242l0.188,4.182l-0.798,1.763l-1.504,0.775l-0.846,0.164v-1.526l-0.188-2.914l-0.329-2.42l-0.846-2.372
	l-0.894-2.209l-1.573-2.16l-1.526-1.621l-1.293-1.011l-1.668-0.775L32.529,32.142z"/>
</svg>
