<?xml version="1.0" encoding="utf-8"?>
<!-- Generator: Adobe Illustrator 14.0.0, SVG Export Plug-In . SVG Version: 6.00 Build 43363)  -->
<!DOCTYPE svg PUBLIC "-//W3C//DTD SVG 1.1//EN" "http://www.w3.org/Graphics/SVG/1.1/DTD/svg11.dtd">
<svg version="1.1" id="Calque_1" xmlns="http://www.w3.org/2000/svg" xmlns:xlink="http://www.w3.org/1999/xlink" x="0px" y="0px"
	 width="47px" height="54.333px" viewBox="0 0 47 54.333" enable-background="new 0 0 47 54.333" xml:space="preserve">
<linearGradient id="SVGID_1_" gradientUnits="userSpaceOnUse" x1="-217.8589" y1="342.7749" x2="-171.0923" y2="342.7749">
	<stop  offset="0" style="stop-color:#FFBF38"/>
	<stop  offset="1" style="stop-color:#FFF58F"/>
</linearGradient>
<path fill="url(#SVGID_1_)" d="M-207.374,324.181c-0.319,0-0.95,0.062-1.361,0.52c-0.134-0.07-0.264-0.14-0.397-0.208
	c-0.13-0.068-0.26-0.131-0.39-0.203c-0.501-0.281-0.998-0.576-1.495-0.899c-0.562-0.368-1.31-0.005-1.379,0.666
	c-0.264,2.676-2.818,2.632-4.746,2.813c-0.562,0.052-0.89,0.791-0.621,1.263c1.594,2.835,3.111,5.839,5.645,7.96
	c1.007,0.848,2.269,1.251,3.535,1.5c0.709,0.143,1.495,0.131,2.213,0.066c0.762-0.074,1.408-0.33,1.854-0.339
	c0.285-0.005,0.492,0.091,0.592,0.407c0.082,0.273,0.09,0.699,0.005,1.367c-0.144,1.135,1.619,1.265,1.768,0.137
	c0.008-0.094,0.013-0.181,0.021-0.271c0.017-0.174,0.035-0.347,0.044-0.51c0.009-0.182,0.004-0.363-0.005-0.537l0.3,0.203
	c0,0,0.09-0.009,0.241-0.009c0.851,0,3.544,0.272,1.491,3.95h3.306c0,0-2.416,0.767-2.035,1.91c0.38,1.142,2.796,4.168,2.796,6.977
	v4.197h-1.797c-0.952,0-1.721,0.77-1.721,1.719l-3.44,3.727c0,0.947,0.77,1.72,1.72,1.72h13.503c0.95,0,1.721-0.772,1.721-1.72
	l-3.441-3.727c0-0.949-0.77-1.719-1.72-1.719h-1.798v-4.197c0-2.809,2.416-5.835,2.796-6.977c0.38-1.144-2.036-1.91-2.036-1.91
	h3.308c-2.054-3.678,0.635-3.95,1.49-3.95c0.151,0,0.242,0.009,0.242,0.009l0.307-0.211c-0.004,0.177-0.014,0.354-0.004,0.54
	c0.009,0.159,0.025,0.333,0.043,0.506c0.009,0.095,0.014,0.181,0.026,0.28c0.143,1.128,1.909,0.998,1.763-0.137
	c-0.086-0.676-0.077-1.107,0.01-1.375c0.099-0.309,0.303-0.404,0.578-0.399c0.445,0.005,1.094,0.265,1.863,0.334
	c0.717,0.069,1.505,0.081,2.213-0.062c1.267-0.249,2.528-0.652,3.54-1.5c2.528-2.126,4.045-5.125,5.645-7.96
	c0.264-0.472-0.065-1.211-0.627-1.263c-1.928-0.186-4.481-0.138-4.746-2.813c-0.069-0.671-0.815-1.034-1.378-0.666
	c-0.497,0.323-0.998,0.622-1.505,0.904c-0.13,0.073-0.259,0.134-0.389,0.202s-0.263,0.138-0.393,0.204
	c-0.411-0.458-1.046-0.52-1.366-0.52c-0.125,0-0.198,0.009-0.198,0.009h-25.389C-207.175,324.19-207.253,324.181-207.374,324.181
	L-207.374,324.181z M-180.889,329.086c0.567-1.076,0.856-1.91,0.978-2.566c0.16-0.078,0.324-0.15,0.483-0.233
	c0.152-0.079,0.308-0.161,0.463-0.243c0.311-0.168,0.627-0.34,0.938-0.521c0.718,1.948,2.525,2.627,4.647,2.938
	c-1.18,2.218-2.46,4.738-4.443,6.169c-1.423,1.023-2.931,1.31-4.491,1.23c-0.233-0.009-0.466-0.028-0.695-0.056
	c-0.221-0.025-0.44-0.053-0.662-0.087l1.886-1.292C-181.786,334.424-183.684,334.424-180.889,329.086L-180.889,329.086z
	 M-207.175,334.424l1.884,1.297c-0.22,0.033-0.44,0.057-0.661,0.082c-0.233,0.027-0.467,0.047-0.695,0.061
	c-1.561,0.074-3.064-0.212-4.482-1.235c-1.983-1.431-3.263-3.951-4.443-6.169c2.122-0.311,3.93-0.989,4.646-2.938
	c0.308,0.182,0.618,0.35,0.928,0.518c0.153,0.083,0.309,0.164,0.464,0.243c0.16,0.081,0.318,0.154,0.48,0.233
	c0.12,0.656,0.414,1.49,0.976,2.57C-205.277,334.424-207.175,334.424-207.175,334.424L-207.175,334.424z M-207.175,334.424"/>
<linearGradient id="SVGID_2_" gradientUnits="userSpaceOnUse" x1="-207.1904" y1="315.7471" x2="-182.1543" y2="315.7471">
	<stop  offset="0" style="stop-color:#FFBF38"/>
	<stop  offset="1" style="stop-color:#FFF58F"/>
</linearGradient>
<path fill="url(#SVGID_2_)" d="M-204.521,323.22c-0.166-0.659-0.287-1.337-0.312-2.04c1.604,0.074,3.125-0.91,3.656-2.508
	c0.533-1.598-0.096-3.299-1.42-4.197c1.112-1.373,2.576-2.441,4.257-3.077c0.426,1.511,1.785,2.619,3.419,2.67
	c0.038,0,0.076,0.009,0.114,0.009c1.684,0,3.101-1.133,3.538-2.679c1.73,0.655,3.237,1.779,4.363,3.21
	c-1.343,0.88-1.997,2.568-1.491,4.174c0.502,1.605,2.008,2.619,3.608,2.572c-0.033,0.643-0.15,1.262-0.302,1.866h2.697
	c0.155-0.787,0.239-1.599,0.239-2.431c0-6.902-5.616-12.516-12.52-12.516c-0.043,0-0.086,0.008-0.134,0.008
	c-0.038,0-0.076,0.004-0.109,0.004c-6.789,0.135-12.273,5.688-12.273,12.508c0,0.83,0.084,1.641,0.24,2.427H-204.521z"/>
<linearGradient id="SVGID_3_" gradientUnits="userSpaceOnUse" x1="-198.4844" y1="320.167" x2="-191.127" y2="320.167">
	<stop  offset="0" style="stop-color:#FFBF38"/>
	<stop  offset="1" style="stop-color:#FFF58F"/>
</linearGradient>
<path fill="url(#SVGID_3_)" d="M-192.058,323.22c0.571-0.648,0.931-1.491,0.931-2.427c0-2.031-1.645-3.68-3.676-3.68h-0.005
	c-0.038,0-0.074,0.012-0.114,0.012c-1.976,0.063-3.562,1.677-3.562,3.668c0,0.936,0.359,1.779,0.936,2.427H-192.058z"/>
<g>
	<rect x="-217.025" y="239.31" fill="none" width="47.578" height="54.217"/>
	<path fill="#CECECE" d="M-206.541,254.348c-0.318,0-0.949,0.061-1.361,0.52c-0.133-0.07-0.264-0.139-0.396-0.208
		c-0.131-0.068-0.26-0.13-0.391-0.203c-0.5-0.281-0.998-0.576-1.494-0.899c-0.562-0.368-1.311-0.005-1.379,0.666
		c-0.264,2.676-2.818,2.632-4.746,2.813c-0.562,0.052-0.891,0.792-0.621,1.263c1.594,2.835,3.111,5.839,5.645,7.96
		c1.006,0.847,2.268,1.25,3.535,1.5c0.709,0.143,1.494,0.131,2.213,0.066c0.762-0.073,1.408-0.33,1.854-0.338
		c0.285-0.004,0.492,0.091,0.592,0.407c0.082,0.273,0.09,0.7,0.006,1.367c-0.145,1.135,1.619,1.265,1.768,0.138
		c0.008-0.095,0.012-0.181,0.02-0.272c0.018-0.173,0.035-0.346,0.045-0.509c0.008-0.182,0.004-0.363-0.006-0.538l0.301,0.204
		c0,0,0.09-0.009,0.24-0.009c0.852,0,3.545,0.272,1.492,3.95h3.305c0,0-2.416,0.767-2.035,1.911
		c0.381,1.141,2.797,4.167,2.797,6.977v4.197h-1.797c-0.953,0-1.721,0.769-1.721,1.719l-3.441,3.727c0,0.947,0.77,1.719,1.721,1.719
		h13.502c0.951,0,1.721-0.772,1.721-1.719l-3.441-3.727c0-0.95-0.77-1.719-1.719-1.719h-1.799v-4.197
		c0-2.809,2.416-5.835,2.797-6.977c0.379-1.144-2.037-1.911-2.037-1.911h3.309c-2.055-3.678,0.635-3.95,1.49-3.95
		c0.15,0,0.242,0.009,0.242,0.009l0.307-0.211c-0.004,0.177-0.014,0.354-0.004,0.54c0.008,0.159,0.025,0.333,0.043,0.506
		c0.008,0.095,0.014,0.181,0.025,0.281c0.143,1.127,1.91,0.998,1.764-0.138c-0.086-0.676-0.078-1.107,0.01-1.375
		c0.098-0.309,0.303-0.404,0.578-0.399c0.445,0.004,1.094,0.265,1.863,0.334c0.717,0.069,1.504,0.081,2.213-0.062
		c1.266-0.249,2.527-0.653,3.539-1.5c2.529-2.126,4.045-5.125,5.645-7.96c0.264-0.471-0.064-1.211-0.627-1.263
		c-1.928-0.186-4.48-0.138-4.746-2.813c-0.068-0.671-0.814-1.034-1.377-0.666c-0.498,0.324-0.998,0.623-1.506,0.904
		c-0.129,0.074-0.258,0.133-0.389,0.202c-0.129,0.069-0.262,0.138-0.393,0.205c-0.41-0.458-1.045-0.52-1.365-0.52
		c-0.125,0-0.199,0.009-0.199,0.009h-25.389C-206.342,254.356-206.42,254.348-206.541,254.348L-206.541,254.348z M-180.055,259.253
		c0.566-1.076,0.855-1.911,0.977-2.567c0.16-0.078,0.324-0.151,0.484-0.233c0.152-0.079,0.307-0.161,0.463-0.243
		c0.311-0.169,0.627-0.341,0.938-0.522c0.717,1.949,2.525,2.628,4.646,2.938c-1.18,2.218-2.459,4.738-4.443,6.169
		c-1.422,1.023-2.93,1.309-4.49,1.23c-0.234-0.008-0.467-0.029-0.695-0.056c-0.221-0.025-0.441-0.052-0.662-0.087l1.885-1.292
		C-180.953,264.591-182.85,264.591-180.055,259.253L-180.055,259.253z M-206.342,264.591l1.885,1.296
		c-0.221,0.034-0.441,0.057-0.662,0.083c-0.232,0.027-0.467,0.047-0.695,0.06c-1.561,0.074-3.064-0.211-4.482-1.235
		c-1.982-1.431-3.262-3.951-4.443-6.169c2.123-0.31,3.93-0.989,4.646-2.938c0.309,0.182,0.619,0.35,0.928,0.518
		c0.154,0.083,0.309,0.164,0.465,0.243c0.16,0.082,0.318,0.154,0.48,0.233c0.119,0.656,0.414,1.49,0.975,2.571
		C-204.443,264.591-206.342,264.591-206.342,264.591L-206.342,264.591z M-206.342,264.591"/>
	<path fill="#CECECE" d="M-203.688,253.387c-0.166-0.659-0.287-1.336-0.312-2.04c1.604,0.074,3.125-0.911,3.656-2.509
		c0.533-1.598-0.096-3.298-1.42-4.197c1.111-1.373,2.576-2.441,4.256-3.077c0.426,1.511,1.785,2.619,3.42,2.67
		c0.037,0,0.076,0.008,0.113,0.008c1.684,0,3.102-1.133,3.539-2.678c1.73,0.655,3.236,1.779,4.363,3.21
		c-1.344,0.879-1.998,2.567-1.492,4.174c0.502,1.604,2.008,2.619,3.609,2.572c-0.033,0.643-0.15,1.261-0.303,1.866h2.697
		c0.156-0.787,0.24-1.599,0.24-2.431c0-6.902-5.617-12.516-12.52-12.516c-0.043,0-0.086,0.008-0.135,0.008
		c-0.037,0-0.076,0.003-0.109,0.003c-6.789,0.135-12.273,5.688-12.273,12.508c0,0.831,0.084,1.641,0.24,2.427H-203.688z"/>
	<path fill="#CECECE" d="M-191.225,253.387c0.572-0.648,0.932-1.492,0.932-2.427c0-2.031-1.645-3.679-3.676-3.679h-0.006
		c-0.037,0-0.074,0.011-0.113,0.011c-1.977,0.064-3.562,1.677-3.562,3.668c0,0.936,0.359,1.78,0.936,2.427H-191.225z"/>
</g>
<path fill="#D74563" d="M-284.67,325.786c1.184-0.099,2.367,1.775,2.564,3.552c0.198,1.776,0.198,2.368,0.198,2.368
	s3.649-1.776,7.3-1.776s9.668,1.974,12.924,1.974s8.879-1.086,11.641-0.889c2.763,0.197,4.539-2.269,6.512-3.945
	c1.973-1.678,4.242-1.875,4.341-2.764c0.099-0.887-1.381-2.17-3.848-3.058c-2.466-0.888-3.354-0.493-3.354-0.888
	s2.467-0.889,3.848-0.395c1.381,0.493,2.861,1.085,3.552,2.072c0.69,0.986,1.282,1.676,1.282,1.676s0-2.071-2.269-3.65
	c-2.269-1.578-3.453-2.367-2.368-2.07c1.086,0.295,4.342,1.578,5.427,3.354s0.888,2.564,2.269,2.564s3.059-0.395,2.565,0.494
	c-0.493,0.888-0.987,3.059-0.198,4.834c0.79,1.775,1.579,2.367,2.368,4.439s0.69,2.959,0.592,3.848
	c-0.099,0.888-0.197,1.184-1.874,0.789c-1.678-0.395-2.565-0.099-2.664,1.085c-0.099,1.185,0.297,3.65-0.69,2.171
	c-0.986-1.48-0.888-2.763-0.888-3.65c0-0.889-1.282-0.494-2.072-1.283c-0.789-0.789-1.085-1.578-2.466-1.381
	s-2.071,1.184-3.453,2.861c-1.381,1.678-3.354,5.13-4.834,7.99c-1.479,2.861-3.157,4.637-3.946,5.328
	c-0.789,0.69-1.381,0.888-1.381,0.888s0.395,2.96,0.789,5.524s0.789,6.807,1.973,8.682c1.185,1.875,2.467,2.762,1.974,3.354
	c-0.493,0.592-2.664,0.592-3.059,0.395s0.099-1.974-0.789-2.071c-0.888-0.1-0.986-0.297-0.986-1.48s-0.099-3.354-0.79-5.13
	c-0.689-1.776-0.986-2.269-0.986-2.269s-0.789,0.789-1.479,2.269s-2.17,4.144-2.368,4.637c-0.197,0.493-0.296,1.282-0.789,2.071
	s-0.789,0.889-1.479,0c-0.69-0.887-1.776-1.381-0.888-2.071c0.888-0.69,0.888-1.282,2.17-2.663c1.283-1.382,1.381-2.368,2.467-3.947
	c1.085-1.578,1.085-1.381,1.184-3.453c0.099-2.07,0.099-3.255-0.493-4.143c-0.592-0.889-1.776-1.283-3.059-0.789
	c-1.282,0.493-2.368,0.888-4.933,0.888s-4.637-0.099-4.637-0.099s-0.098,2.467-0.592,3.453c-0.493,0.986,0.197,3.156,1.184,5.426
	c0.987,2.27,2.27,4.341,2.96,5.327c0.69,0.987,0.69,1.874,0.69,2.269s-1.184,0.592-2.071,0.592s-1.086-0.395-1.479-1.281
	c-0.395-0.889-0.691-1.678-1.283-3.355c-0.592-1.676-1.381-4.143-2.466-5.326s-1.085-2.17-1.085-2.861
	c0-0.69,0.888-1.085,1.282-1.875c0.395-0.789,0.395-2.17,0.395-2.17s-1.974,0.789-3.552-0.197s-1.578-2.367-2.861-2.072
	c-1.282,0.297-0.887,1.776-1.973,3.256c-1.085,1.48-2.467,3.256-2.467,4.834c0,1.579,1.283,4.736,1.875,6.413
	s1.381,2.663,1.775,3.649c0.395,0.987,0.297,1.579,0.297,1.875s-0.789,0.395-1.776,0.099c-0.986-0.296-0.395-0.69-1.184-1.282
	c-0.79-0.592-0.889-0.986-0.987-2.467c-0.098-1.479-0.492-2.762-1.085-4.242c-0.592-1.479-1.578-3.058-1.282-5.326
	c0.296-2.27,1.085-2.861,1.775-4.638c0.691-1.776-0.099-3.749-0.395-7.694c-0.296-3.947,0-7.203-0.099-9.076
	c-0.099-1.875-0.395-1.382-1.184-2.565c-0.789-1.185-0.986-2.071-0.789-3.65S-284.67,325.786-284.67,325.786z"/>
<linearGradient id="SVGID_4_" gradientUnits="userSpaceOnUse" x1="0" y1="34.501" x2="46.7666" y2="34.501">
	<stop  offset="0" style="stop-color:#FFBF38"/>
	<stop  offset="1" style="stop-color:#FFF58F"/>
</linearGradient>
<path fill="url(#SVGID_4_)" d="M10.485,15.907c-0.319,0-0.95,0.061-1.361,0.52c-0.134-0.07-0.264-0.139-0.397-0.208
	c-0.13-0.068-0.26-0.13-0.39-0.203c-0.501-0.281-0.998-0.576-1.495-0.899c-0.562-0.368-1.31-0.005-1.379,0.666
	c-0.264,2.676-2.818,2.632-4.746,2.813c-0.562,0.052-0.89,0.792-0.621,1.263c1.594,2.835,3.111,5.839,5.645,7.96
	c1.007,0.847,2.269,1.25,3.535,1.5c0.709,0.143,1.495,0.131,2.213,0.066c0.762-0.073,1.408-0.33,1.854-0.338
	c0.285-0.004,0.492,0.091,0.592,0.407c0.082,0.273,0.09,0.7,0.005,1.367c-0.144,1.135,1.619,1.265,1.768,0.138
	c0.008-0.095,0.013-0.181,0.021-0.272c0.017-0.173,0.035-0.346,0.044-0.509c0.009-0.182,0.004-0.363-0.005-0.538l0.3,0.204
	c0,0,0.09-0.009,0.241-0.009c0.851,0,3.544,0.272,1.491,3.95h3.306c0,0-2.416,0.767-2.035,1.911c0.38,1.141,2.796,4.167,2.796,6.977
	v4.197h-1.797c-0.952,0-1.721,0.769-1.721,1.719l-3.44,3.727c0,0.947,0.77,1.719,1.72,1.719h13.503c0.95,0,1.721-0.772,1.721-1.719
	l-3.441-3.727c0-0.95-0.77-1.719-1.72-1.719h-1.798V42.67c0-2.809,2.416-5.835,2.796-6.977c0.38-1.144-2.036-1.911-2.036-1.911
	h3.308c-2.054-3.678,0.635-3.95,1.49-3.95c0.151,0,0.242,0.009,0.242,0.009l0.307-0.211c-0.004,0.177-0.014,0.354-0.004,0.54
	c0.009,0.159,0.025,0.333,0.043,0.506c0.009,0.095,0.014,0.181,0.026,0.281c0.143,1.127,1.909,0.998,1.763-0.138
	c-0.086-0.676-0.077-1.107,0.01-1.375c0.099-0.309,0.303-0.404,0.578-0.399c0.445,0.004,1.094,0.265,1.863,0.334
	c0.717,0.069,1.505,0.081,2.213-0.062c1.267-0.249,2.528-0.653,3.54-1.5c2.528-2.126,4.045-5.125,5.645-7.96
	c0.264-0.471-0.065-1.211-0.627-1.263c-1.928-0.186-4.481-0.138-4.746-2.813c-0.069-0.671-0.815-1.034-1.378-0.666
	c-0.497,0.324-0.998,0.623-1.505,0.904c-0.13,0.074-0.259,0.133-0.389,0.202c-0.13,0.069-0.263,0.138-0.393,0.205
	c-0.411-0.458-1.046-0.52-1.366-0.52c-0.125,0-0.198,0.009-0.198,0.009H10.684C10.684,15.916,10.606,15.907,10.485,15.907
	L10.485,15.907z M36.97,20.813c0.567-1.076,0.856-1.911,0.978-2.567c0.16-0.078,0.324-0.151,0.483-0.233
	c0.152-0.079,0.308-0.161,0.463-0.243c0.311-0.169,0.627-0.341,0.938-0.522c0.718,1.949,2.525,2.628,4.647,2.938
	c-1.18,2.218-2.46,4.738-4.443,6.169c-1.423,1.023-2.931,1.309-4.491,1.23c-0.233-0.008-0.466-0.029-0.695-0.056
	c-0.221-0.025-0.44-0.052-0.662-0.087l1.886-1.292C36.073,26.151,34.175,26.151,36.97,20.813L36.97,20.813z M10.684,26.151
	l1.884,1.296c-0.22,0.034-0.44,0.057-0.661,0.083c-0.233,0.027-0.467,0.047-0.695,0.06c-1.561,0.074-3.064-0.211-4.482-1.235
	c-1.983-1.431-3.263-3.951-4.443-6.169c2.122-0.31,3.93-0.989,4.646-2.938c0.308,0.182,0.618,0.35,0.928,0.518
	c0.153,0.083,0.309,0.164,0.464,0.243c0.16,0.082,0.318,0.154,0.48,0.233c0.12,0.656,0.414,1.49,0.976,2.571
	C12.582,26.151,10.684,26.151,10.684,26.151L10.684,26.151z M10.684,26.151"/>
<linearGradient id="SVGID_5_" gradientUnits="userSpaceOnUse" x1="10.6685" y1="7.4731" x2="35.7046" y2="7.4731">
	<stop  offset="0" style="stop-color:#FFBF38"/>
	<stop  offset="1" style="stop-color:#FFF58F"/>
</linearGradient>
<path fill="url(#SVGID_5_)" d="M13.337,14.946c-0.166-0.659-0.287-1.336-0.312-2.04c1.604,0.074,3.125-0.911,3.656-2.509
	c0.533-1.598-0.096-3.298-1.42-4.197c1.112-1.373,2.576-2.441,4.257-3.077c0.426,1.511,1.785,2.619,3.419,2.67
	c0.038,0,0.076,0.008,0.114,0.008c1.684,0,3.101-1.133,3.538-2.678c1.73,0.655,3.237,1.779,4.363,3.21
	c-1.343,0.879-1.997,2.567-1.491,4.174c0.502,1.604,2.008,2.619,3.608,2.572c-0.033,0.643-0.15,1.261-0.302,1.866h2.697
	c0.155-0.787,0.239-1.599,0.239-2.431C35.705,5.614,30.088,0,23.185,0c-0.043,0-0.086,0.008-0.134,0.008
	c-0.038,0-0.076,0.003-0.109,0.003C16.153,0.146,10.668,5.699,10.668,12.52c0,0.831,0.084,1.641,0.24,2.427H13.337z"/>
<linearGradient id="SVGID_6_" gradientUnits="userSpaceOnUse" x1="19.3745" y1="11.8931" x2="26.7319" y2="11.8931">
	<stop  offset="0" style="stop-color:#FFBF38"/>
	<stop  offset="1" style="stop-color:#FFF58F"/>
</linearGradient>
<path fill="url(#SVGID_6_)" d="M25.801,14.946c0.571-0.648,0.931-1.492,0.931-2.427c0-2.031-1.645-3.679-3.676-3.679h-0.005
	c-0.038,0-0.074,0.011-0.114,0.011c-1.976,0.064-3.562,1.677-3.562,3.668c0,0.936,0.359,1.78,0.936,2.427H25.801z"/>
</svg>
