<?xml version="1.0" encoding="utf-8"?>
<!-- Generator: Adobe Illustrator 14.0.0, SVG Export Plug-In . SVG Version: 6.00 Build 43363)  -->
<!DOCTYPE svg PUBLIC "-//W3C//DTD SVG 1.1//EN" "http://www.w3.org/Graphics/SVG/1.1/DTD/svg11.dtd">
<svg version="1.1" id="Calque_1" xmlns="http://www.w3.org/2000/svg" xmlns:xlink="http://www.w3.org/1999/xlink" x="0px" y="0px"
	 width="53.667px" height="53.668px" viewBox="0 0 53.667 53.668" enable-background="new 0 0 53.667 53.668" xml:space="preserve">
<path fill="#4E4E4E" d="M26.834,53.668C12.036,53.668,0,41.631,0,26.834S12.036,0,26.834,0c14.795,0,26.833,12.037,26.833,26.834
	S41.629,53.668,26.834,53.668L26.834,53.668z M26.834,2.729c-13.293,0-24.105,10.813-24.105,24.104s10.812,24.104,24.105,24.104
	c13.29,0,24.104-10.813,24.104-24.104S40.124,2.729,26.834,2.729L26.834,2.729z"/>
<polygon fill="#4E4E4E" points="40.779,30.321 25.62,30.321 25.62,12.28 28.349,12.28 28.349,27.593 40.779,27.593 40.779,30.321 
	"/>
</svg>
