<?xml version="1.0" encoding="utf-8"?>
<!-- Generator: Adobe Illustrator 14.0.0, SVG Export Plug-In . SVG Version: 6.00 Build 43363)  -->
<!DOCTYPE svg PUBLIC "-//W3C//DTD SVG 1.1//EN" "http://www.w3.org/Graphics/SVG/1.1/DTD/svg11.dtd">
<svg version="1.1" id="Calque_1" xmlns="http://www.w3.org/2000/svg" xmlns:xlink="http://www.w3.org/1999/xlink" x="0px" y="0px"
	 width="55.307px" height="53.032px" viewBox="0 0 55.307 53.032" enable-background="new 0 0 55.307 53.032" xml:space="preserve">
<rect x="35.463" y="29.149" fill="#4E4E4E" width="6.807" height="4.727"/>
<rect x="24.25" y="29.149" fill="#4E4E4E" width="6.807" height="4.727"/>
<rect x="13.045" y="29.149" fill="#4E4E4E" width="6.807" height="4.727"/>
<rect x="35.463" y="38.332" fill="#4E4E4E" width="6.807" height="4.727"/>
<rect x="24.25" y="38.332" fill="#4E4E4E" width="6.807" height="4.727"/>
<rect x="13.045" y="38.332" fill="#4E4E4E" width="6.807" height="4.727"/>
<rect x="35.463" y="19.99" fill="#4E4E4E" width="6.807" height="4.728"/>
<rect x="24.25" y="19.99" fill="#4E4E4E" width="6.807" height="4.728"/>
<rect x="13.045" y="19.99" fill="#4E4E4E" width="6.807" height="4.728"/>
<g>
	<path fill="#4E4E4E" d="M50.627,53.032H4.682C2.1,53.032,0,50.933,0,48.353V9.307c0-2.58,2.1-4.68,4.682-4.68h45.945
		c2.58,0,4.68,2.1,4.68,4.68v39.045C55.307,50.933,53.207,53.032,50.627,53.032L50.627,53.032z M4.682,8.314
		c-0.549,0-0.994,0.446-0.994,0.993v39.045c0,0.547,0.445,0.993,0.994,0.993h45.945c0.547,0,0.992-0.445,0.992-0.993V9.307
		c0-0.547-0.445-0.993-0.992-0.993H4.682L4.682,8.314z"/>
	<g>
		<path fill="#4E4E4E" d="M14.918,13.342c-1.006,0-1.818-0.814-1.818-1.819V1.819C13.1,0.815,13.912,0,14.918,0
			s1.82,0.815,1.82,1.819v9.703C16.738,12.527,15.924,13.342,14.918,13.342L14.918,13.342z"/>
		<path fill="#4E4E4E" d="M40.793,13.342c-1.006,0-1.818-0.814-1.818-1.819V1.819C38.975,0.815,39.787,0,40.793,0
			s1.82,0.815,1.82,1.819v9.703C42.613,12.527,41.799,13.342,40.793,13.342L40.793,13.342z"/>
		<path fill="#4E4E4E" d="M27.857,13.342c-1.006,0-1.82-0.814-1.82-1.819V1.819c0-1.004,0.814-1.819,1.82-1.819
			c1.004,0,1.818,0.815,1.818,1.819v9.703C29.676,12.527,28.861,13.342,27.857,13.342L27.857,13.342z"/>
	</g>
</g>
</svg>
