<?xml version="1.0" encoding="utf-8"?>
<!-- Generator: Adobe Illustrator 14.0.0, SVG Export Plug-In . SVG Version: 6.00 Build 43363)  -->
<!DOCTYPE svg PUBLIC "-//W3C//DTD SVG 1.1//EN" "http://www.w3.org/Graphics/SVG/1.1/DTD/svg11.dtd">
<svg version="1.1" id="Calque_1" xmlns="http://www.w3.org/2000/svg" xmlns:xlink="http://www.w3.org/1999/xlink" x="0px" y="0px"
	 width="45.68px" height="54.054px" viewBox="0 0 45.68 54.054" enable-background="new 0 0 45.68 54.054" xml:space="preserve">
<path fill="#28385B" d="M22.841,54.054c-8.716,0-13.52-3.645-14.428-4.405c-1.962-0.006-7.961-0.267-8.281-3.172
	c-1.811-16.514,15.649-20.42,15.826-20.458l0.43-0.091l0.146,0.414c0.047,0.129,1.229,3.221,6.148,3.221l0.151-0.001l0.168,0.001
	c4.954,0,6.111-3.127,6.123-3.158l0.146-0.413l0.428,0.09c0.177,0.037,17.662,3.88,15.851,20.396
	c-0.319,2.905-6.319,3.166-8.281,3.172C36.36,50.409,31.557,54.054,22.841,54.054L22.841,54.054z M8.79,48.646l0.146,0.134
	c0.047,0.043,4.793,4.274,13.902,4.274h0.002c9.111,0,13.856-4.231,13.903-4.274l0.146-0.133l0.302,0.003
	c2.46,0,7.165-0.478,7.363-2.282c1.586-14.465-12.117-18.578-14.676-19.218c-0.528,0.994-2.286,3.413-6.877,3.413l-0.167-0.001
	l-0.153,0.001c-4.6,0-6.371-2.468-6.902-3.474c-2.563,0.65-16.239,4.817-14.653,19.278c0.198,1.805,4.902,2.282,7.362,2.282
	L8.79,48.646L8.79,48.646z"/>
<path fill="#28385B" d="M22.841,53.929h-0.002c-8.799,0-13.583-3.726-14.38-4.403c-1.885-0.003-7.893-0.235-8.204-3.062
	C-1.543,30.06,15.809,26.178,15.984,26.14l0.32-0.067l0.112,0.309c0.049,0.136,1.252,3.306,6.267,3.306h0.151H23
	c5.013,0,6.193-3.11,6.24-3.242l0.111-0.308l0.321,0.065c0.175,0.037,17.553,3.856,15.754,20.261
	c-0.312,2.826-6.318,3.06-8.204,3.062C36.424,50.203,31.641,53.929,22.841,53.929L22.841,53.929z M8.743,48.77l0.11,0.101
	c0.047,0.043,4.821,4.307,13.986,4.307h0.002c9.165,0,13.938-4.264,13.985-4.307l0.11-0.1l0.257,0.002
	c2.682,0,7.277-0.504,7.485-2.392c1.598-14.574-12.627-18.801-14.868-19.373c-0.454,0.906-2.142,3.431-6.811,3.431l-0.164-0.001
	l-0.153,0.001c-4.682,0-6.383-2.58-6.838-3.494c-2.319,0.572-16.46,4.683-14.842,19.437c0.208,1.888,4.802,2.392,7.484,2.392
	L8.743,48.77L8.743,48.77z"/>
<path fill="#28385B" d="M22.748,27.714c-1.829,0-3.515-0.778-5.01-2.313c-3.613-3.708-5.035-10.673-4.963-13.406
	C12.887,7.73,15.131,0.485,22.834,0.377l0.146-0.001c4.127,0,6.55,2.533,7.857,4.658c1.647,2.679,2.234,5.791,2.234,7.811
	c0,5.855-4.077,14.772-10.222,14.868L22.748,27.714L22.748,27.714z M22.98,1.376l-0.132,0.001
	c-6.945,0.098-8.971,6.736-9.073,10.643c-0.072,2.754,1.43,9.347,4.68,12.684c1.3,1.334,2.744,2.011,4.293,2.011v0.5l0.085-0.501
	c5.359-0.084,9.238-8.342,9.238-13.868C32.071,9.103,29.849,1.376,22.98,1.376L22.98,1.376z"/>
<g>
	<path fill="#28385B" d="M22.749,27.589c-1.794,0-3.45-0.766-4.921-2.275c-3.587-3.683-5-10.601-4.928-13.317
		c0.111-4.219,2.329-11.388,9.937-11.495L22.979,0.5c7.531,0,9.968,8.317,9.968,12.345c0,5.808-4.028,14.648-10.101,14.743
		L22.749,27.589L22.749,27.589z M22.979,1.251l-0.132,0.001c-7.038,0.101-9.092,6.813-9.196,10.765
		c-0.073,2.771,1.44,9.411,4.715,12.771c1.324,1.36,2.799,2.049,4.383,2.049h0.086c5.43-0.085,9.36-8.417,9.36-13.992
		C32.195,9.063,29.942,1.251,22.979,1.251L22.979,1.251z"/>
	<path fill="#28385B" d="M22.751,28.089h-0.002c-1.934,0-3.71-0.816-5.279-2.427c-3.69-3.788-5.143-10.892-5.07-13.679
		c0.116-4.397,2.443-11.869,10.43-11.982L22.976,0c7.913,0,10.472,8.654,10.472,12.845c0,6.003-4.225,15.144-10.593,15.243
		L22.751,28.089L22.751,28.089z M22.981,1.751l-0.131,0.001c-6.657,0.095-8.601,6.505-8.7,10.277
		c-0.071,2.697,1.396,9.15,4.573,12.41c1.226,1.259,2.58,1.897,4.025,1.897c5.139-0.079,8.947-8.239,8.947-13.492
		C31.695,9.226,29.565,1.753,22.981,1.751L22.981,1.751z"/>
</g>
<path fill="#28385B" d="M22.923,35.009c-5.019,0-9.276-2.579-11.389-6.902l1.351-0.66c1.882,3.851,5.541,6.06,10.038,6.06
	c4.221,0,8.081-2.273,10.073-5.932l1.32,0.721C32.061,32.436,27.696,35.009,22.923,35.009L22.923,35.009z"/>
<path fill="#28385B" d="M42.384,48.979l-0.749-0.079c0.079-0.732,0.118-1.479,0.118-2.219c0-8.038-3.798-14.118-9.913-15.864
	l0.206-0.723c6.452,1.842,10.458,8.198,10.458,16.587C42.505,47.447,42.463,48.221,42.384,48.979L42.384,48.979z"/>
<path fill="#28385B" d="M3.479,48.979c-0.082-0.754-0.122-1.527-0.122-2.298c0-8.326,3.968-14.632,10.355-16.456l0.207,0.723
	c-6.051,1.729-9.811,7.757-9.811,15.733c0,0.743,0.04,1.49,0.118,2.218L3.479,48.979L3.479,48.979z"/>
<path fill="#28385B" d="M13.713,30.642c-0.023-0.773-0.611-1.361-0.611-1.361l-1.222-1.387l-2.607,1.551l-3.665,2.749l-2.42,2.937
	l-1.762,3.147L0.769,41.52L0.58,45.701l0.799,1.763l1.503,0.775l0.846,0.164v-1.526l0.188-2.914l0.329-2.42l0.846-2.372l0.893-2.209
	l1.574-2.16l1.527-1.621l1.292-1.011l1.668-0.775L13.713,30.642z"/>
<path fill="#28385B" d="M32.154,30.642c0.023-0.773,0.612-1.361,0.612-1.361l1.222-1.387l2.606,1.551l3.666,2.749l2.42,2.937
	l1.763,3.147L45.1,41.52l0.188,4.182l-0.798,1.763l-1.504,0.775l-0.846,0.164v-1.526l-0.188-2.914l-0.329-2.42l-0.846-2.372
	l-0.894-2.209l-1.573-2.16l-1.526-1.621L35.49,32.17l-1.668-0.775L32.154,30.642z"/>
</svg>
