<?xml version="1.0" encoding="utf-8"?>
<!-- Generator: Adobe Illustrator 14.0.0, SVG Export Plug-In . SVG Version: 6.00 Build 43363)  -->
<!DOCTYPE svg PUBLIC "-//W3C//DTD SVG 1.1//EN" "http://www.w3.org/Graphics/SVG/1.1/DTD/svg11.dtd">
<svg version="1.1" id="Calque_1" xmlns="http://www.w3.org/2000/svg" xmlns:xlink="http://www.w3.org/1999/xlink" x="0px" y="0px"
	 width="98.75px" height="52px" viewBox="0 0 98.75 52" enable-background="new 0 0 98.75 52" xml:space="preserve">
<path fill="#4E4E4E" d="M26,52c-3.59,0-6.5-2.91-6.5-6.5v-39C19.5,2.91,22.41,0,26,0s6.5,2.91,6.5,6.5v39C32.5,49.09,29.59,52,26,52
	L26,52z"/>
<path fill="#4E4E4E" d="M71.75,52c-3.59,0-6.5-2.91-6.5-6.5v-39c0-3.59,2.91-6.5,6.5-6.5s6.5,2.91,6.5,6.5v39
	C78.25,49.09,75.34,52,71.75,52L71.75,52z"/>
<path fill="#4E4E4E" d="M96.75,24h-4V10.875c0-1.933-1.567-3.5-3.5-3.5s-3.5,1.567-3.5,3.5v30.25c0,1.933,1.567,3.5,3.5,3.5
	s3.5-1.567,3.5-3.5V28h4c1.104,0,2-0.896,2-2S97.854,24,96.75,24z"/>
<path fill="#4E4E4E" d="M9,7.375c-1.933,0-3.5,1.567-3.5,3.5V24H2c-1.104,0-2,0.896-2,2s0.896,2,2,2h3.5v13.125
	c0,1.933,1.567,3.5,3.5,3.5s3.5-1.567,3.5-3.5v-30.25C12.5,8.942,10.933,7.375,9,7.375z"/>
<polygon fill="#4E4E4E" points="59.5,28 38,28 38,24 59.5,24 59.5,28 "/>
</svg>
