<?xml version="1.0" encoding="utf-8"?>
<!-- Generator: Adobe Illustrator 14.0.0, SVG Export Plug-In . SVG Version: 6.00 Build 43363)  -->
<!DOCTYPE svg PUBLIC "-//W3C//DTD SVG 1.1//EN" "http://www.w3.org/Graphics/SVG/1.1/DTD/svg11.dtd">
<svg version="1.1" id="Calque_1" xmlns="http://www.w3.org/2000/svg" xmlns:xlink="http://www.w3.org/1999/xlink" x="0px" y="0px"
	 width="56.335px" height="53.456px" viewBox="0 0 56.335 53.456" enable-background="new 0 0 56.335 53.456" xml:space="preserve">
<g>
	<path fill="#28385B" d="M22.087,52.77h-0.002c-8.436,0-13.011-3.579-13.759-4.216c-1.796-0.002-7.545-0.222-7.841-2.916
		c-1.721-15.686,14.874-19.4,15.042-19.436l0.292-0.062l0.103,0.283c0.047,0.13,1.2,3.175,6.012,3.175l0.146,0l0.161,0
		c4.811,0,5.943-2.987,5.989-3.114l0.102-0.28l0.292,0.06c0.168,0.035,16.785,3.688,15.064,19.375
		c-0.296,2.694-6.045,2.914-7.841,2.916C35.1,49.191,30.525,52.77,22.087,52.77L22.087,52.77z M8.586,47.866l0.101,0.092
		c0.045,0.042,4.62,4.127,13.398,4.127h0.002c8.802,0,13.355-4.085,13.4-4.126l0.101-0.092l0.237,0.003
		c2.573,0,6.982-0.486,7.182-2.305c1.534-13.993-12.151-18.03-14.255-18.565c-0.425,0.853-2.029,3.285-6.511,3.285l-0.159,0
		l-0.148,0c-4.492,0-6.109-2.486-6.534-3.347c-2.182,0.536-15.786,4.461-14.232,18.627c0.199,1.819,4.608,2.305,7.182,2.305
		L8.586,47.866L8.586,47.866z"/>
	<g>
		<path fill="#28385B" d="M22.087,52.786h-0.002c-8.422,0-13.001-3.566-13.764-4.215c-1.805-0.002-7.556-0.226-7.854-2.932
			c-1.722-15.702,14.889-19.417,15.056-19.454l0.307-0.064l0.108,0.295c0.047,0.13,1.198,3.164,5.998,3.164h0.146h0.158
			c4.799,0,5.928-2.978,5.973-3.104l0.106-0.294l0.307,0.062c0.168,0.035,16.802,3.692,15.08,19.394
			c-0.298,2.706-6.048,2.929-7.853,2.932C35.089,49.22,30.512,52.786,22.087,52.786L22.087,52.786z M8.592,47.848l0.106,0.097
			c0.046,0.042,4.615,4.122,13.387,4.122h0.002c8.773,0,13.343-4.081,13.388-4.122l0.105-0.095l0.246,0.001
			c2.567,0,6.966-0.482,7.165-2.289c1.529-13.951-12.087-17.997-14.232-18.545c-0.434,0.868-2.049,3.284-6.519,3.284l-0.157,0
			l-0.146,0c-4.482,0-6.109-2.47-6.546-3.345c-2.22,0.548-15.755,4.482-14.207,18.605c0.199,1.807,4.598,2.289,7.164,2.289
			L8.592,47.848L8.592,47.848z"/>
		<path fill="#28385B" d="M22.087,53.129h-0.002c-8.221,0-12.828-3.344-13.889-4.215c-2.421-0.015-7.755-0.375-8.069-3.236
			c-1.748-15.95,15.153-19.79,15.324-19.826l0.6-0.126l0.21,0.574c0.043,0.122,1.112,2.939,5.676,2.939h0.304
			c4.572,0,5.607-2.758,5.649-2.875l0.209-0.575l0.596,0.121c0.173,0.037,17.105,3.786,15.353,19.768
			c-0.315,2.861-5.648,3.222-8.069,3.236C34.917,49.785,30.303,53.129,22.087,53.129L22.087,53.129z M1.011,40.088
			c-0.331,1.645-0.426,3.478-0.202,5.514c0.212,1.929,4.021,2.621,7.514,2.626h0.126l0.096,0.082
			c0.811,0.69,5.276,4.133,13.541,4.133h0.002c8.26,0,12.732-3.443,13.545-4.133l0.096-0.082h0.125
			c3.493-0.005,7.301-0.697,7.513-2.626c1.685-15.359-14.646-18.986-14.81-19.021l-0.015-0.003l-0.007,0.017
			c-0.047,0.134-1.243,3.329-6.294,3.329h-0.304c-5.039,0-6.271-3.252-6.321-3.391l-0.005-0.015l-0.017,0.003
			c-0.034,0.007-0.779,0.177-1.921,0.581c0.701-0.234,1.268-0.389,1.636-0.479l0.266-0.065l0.123,0.245
			c0.474,0.948,2.028,3.155,6.239,3.155l0.146,0l0.16,0c4.327,0,5.848-2.369,6.21-3.095l0.124-0.247l0.268,0.068
			c1.649,0.421,16.064,4.528,14.488,18.914c-0.272,2.469-6.301,2.595-7.506,2.595l-0.115-0.001l-0.008,0.007
			c-0.041,0.039-4.653,4.21-13.616,4.21c-8.831,0-13.427-4.038-13.618-4.21l-0.008-0.007l-0.109,0.001
			c-1.209,0-7.236-0.125-7.509-2.595C0.619,43.56,0.7,41.729,1.011,40.088L1.011,40.088z M8.724,47.503l0.205,0.188
			c0.043,0.038,4.589,4.033,13.156,4.033c8.604,0,13.113-3.992,13.158-4.033l0.206-0.186l0.379,0.002
			c3.28,0,6.679-0.682,6.822-1.984c1.438-13.123-10.632-17.268-13.719-18.107c-0.586,1.003-2.373,3.227-6.691,3.227l-0.158,0
			l-0.145,0c-4.327,0-6.131-2.271-6.721-3.29c-3.086,0.814-15.15,4.87-13.692,18.17c0.144,1.302,3.541,1.984,6.823,1.984
			L8.724,47.503L8.724,47.503z"/>
	</g>
	<g>
		<path fill="#28385B" d="M21.999,26.616c-1.717,0-3.303-0.732-4.711-2.178c-3.434-3.525-4.785-10.147-4.717-12.748
			c0.106-4.038,2.229-10.9,9.512-11.003l0.137-0.001c7.208,0,9.541,7.961,9.541,11.816c0,5.56-3.854,14.022-9.668,14.113
			L21.999,26.616L21.999,26.616z M22.22,1.405l-0.127,0c-6.736,0.097-8.703,6.522-8.802,10.304
			c-0.069,2.653,1.378,9.009,4.513,12.226c1.268,1.302,2.68,1.961,4.195,1.961h0.083c5.198-0.081,8.959-8.057,8.959-13.394
			C31.041,8.883,28.886,1.405,22.22,1.405L22.22,1.405z"/>
		<path fill="#28385B" d="M22.002,27.301h-0.003c-1.909,0-3.66-0.803-5.202-2.385c-3.574-3.67-4.981-10.546-4.911-13.245
			c0.113-4.283,2.386-11.561,10.188-11.671L22.217,0c7.729,0,10.229,8.423,10.229,12.502c0,5.968-4.029,14.7-10.343,14.799
			L22.002,27.301L22.002,27.301z M22.222,2.09l-0.126,0c-6.211,0.089-8.026,6.1-8.119,9.637c-0.065,2.48,1.36,8.694,4.318,11.729
			c1.133,1.165,2.38,1.754,3.704,1.754h0.083c4.716-0.074,8.273-7.76,8.273-12.708C30.355,9.105,28.367,2.092,22.222,2.09
			L22.222,2.09z"/>
	</g>
	<path fill="#28385B" d="M22.165,34.675c-4.802,0-8.878-2.468-10.9-6.607l1.293-0.632c1.802,3.686,5.304,5.801,9.607,5.801
		c4.042,0,7.736-2.177,9.643-5.678l1.265,0.69C30.913,32.212,26.735,34.675,22.165,34.675L22.165,34.675z"/>
	<path fill="#28385B" d="M40.795,48.048l-0.717-0.076c0.075-0.701,0.113-1.416,0.113-2.124c0-7.694-3.636-13.515-9.488-15.187
		l0.196-0.691c6.177,1.763,10.012,7.848,10.012,15.878C40.911,46.582,40.871,47.323,40.795,48.048L40.795,48.048z"/>
	<path fill="#28385B" d="M3.554,48.048c-0.078-0.722-0.117-1.462-0.117-2.199c0-7.97,3.799-14.007,9.912-15.753l0.198,0.692
		c-5.792,1.654-9.391,7.425-9.391,15.061c0,0.711,0.037,1.426,0.112,2.123L3.554,48.048L3.554,48.048z"/>
	<path fill="#28385B" d="M13.351,30.496c-0.022-0.741-0.585-1.304-0.585-1.304l-1.17-1.327L9.101,29.35L5.592,31.98l-2.316,2.812
		l-1.687,3.013l-0.63,3.104l-0.18,4.002l0.765,1.688l1.439,0.742l0.809,0.157v-1.461l0.181-2.79l0.314-2.316l0.81-2.271l0.854-2.114
		l1.507-2.068l1.462-1.552l1.237-0.967l1.597-0.743L13.351,30.496z"/>
	<path fill="#28385B" d="M31.003,30.496c0.021-0.741,0.586-1.304,0.586-1.304l1.169-1.327l2.495,1.484l3.51,2.631l2.315,2.812
		l1.688,3.013l0.628,3.104l0.18,4.002l-0.764,1.688l-1.439,0.742l-0.81,0.157v-1.461l-0.181-2.79l-0.315-2.316l-0.809-2.271
		l-0.855-2.114l-1.506-2.068l-1.461-1.552l-1.239-0.967l-1.597-0.743L31.003,30.496z"/>
</g>
<g>
	<circle fill="#F2F3F9" cx="43.239" cy="40.359" r="12.243"/>
	<path fill="#28385B" d="M43.239,53.456c-7.223,0-13.097-5.875-13.097-13.097s5.875-13.096,13.097-13.096
		c7.221,0,13.096,5.875,13.096,13.096S50.46,53.456,43.239,53.456L43.239,53.456z M43.239,28.971
		c-6.28,0-11.389,5.108-11.389,11.388s5.109,11.389,11.389,11.389s11.388-5.109,11.388-11.389S49.519,28.971,43.239,28.971
		L43.239,28.971z"/>
</g>
<polygon fill="#006DFF" points="49.49,39.896 44.092,39.896 44.092,34.108 42.384,34.108 42.384,39.896 36.988,39.896 
	36.988,41.604 42.384,41.604 42.384,46.61 44.092,46.61 44.092,41.604 49.49,41.604 "/>
</svg>
