<?xml version="1.0" encoding="utf-8"?>
<!-- Generator: Adobe Illustrator 14.0.0, SVG Export Plug-In . SVG Version: 6.00 Build 43363)  -->
<!DOCTYPE svg PUBLIC "-//W3C//DTD SVG 1.1//EN" "http://www.w3.org/Graphics/SVG/1.1/DTD/svg11.dtd">
<svg version="1.1" id="Calque_1" xmlns="http://www.w3.org/2000/svg" xmlns:xlink="http://www.w3.org/1999/xlink" x="0px" y="0px"
	 width="87.871px" height="42.334px" viewBox="0 0 87.871 42.334" enable-background="new 0 0 87.871 42.334" xml:space="preserve">
<g>
	<polygon fill="#4E4E4E" points="56.494,2 55.339,2 39.45,33.127 33.52,21.524 43.478,2 39.286,2 31.397,17.386 23.563,2 19.318,2 
		29.275,21.524 23.399,33.127 7.511,2 3.268,2 22.854,40.334 23.944,40.334 31.397,25.666 38.906,40.334 39.994,40.334 
		56.494,7.954 	"/>
	<polygon fill="#4E4E4E" points="41.22,42.334 37.683,42.334 31.404,30.068 25.171,42.334 21.63,42.334 0,0 8.736,0 23.393,28.714 
		27.032,21.527 16.053,0 24.79,0 31.404,12.99 38.064,0 46.744,0 35.766,21.523 39.449,28.73 54.115,0 58.494,0 58.494,8.434 
		41.22,42.334 	"/>
</g>
<g>
	<path fill="#4E4E4E" d="M69.072,5.574V16.3h15.223v3.575H69.072v20.431h-3.97V2h20.769v3.574H69.072z"/>
	<polygon fill="#4E4E4E" points="71.072,42.306 63.102,42.306 63.102,0 87.871,0 87.871,7.574 71.072,7.574 71.072,14.3 
		86.294,14.3 86.294,21.875 71.072,21.875 71.072,42.306 	"/>
</g>
</svg>
