<?xml version="1.0" encoding="utf-8"?>
<!-- Generator: Adobe Illustrator 14.0.0, SVG Export Plug-In . SVG Version: 6.00 Build 43363)  -->
<!DOCTYPE svg PUBLIC "-//W3C//DTD SVG 1.1//EN" "http://www.w3.org/Graphics/SVG/1.1/DTD/svg11.dtd">
<svg version="1.1" id="Calque_1" xmlns="http://www.w3.org/2000/svg" xmlns:xlink="http://www.w3.org/1999/xlink" x="0px" y="0px"
	 width="50.74px" height="53.168px" viewBox="0 0 50.74 53.168" enable-background="new 0 0 50.74 53.168" xml:space="preserve">
<path fill="#4E4E4E" d="M45.48,53.168H5.258C2.359,53.168,0,50.809,0,47.909v-38C0,7.009,2.359,4.65,5.258,4.65H45.48
	c2.9,0,5.26,2.358,5.26,5.258v38C50.74,50.809,48.381,53.168,45.48,53.168L45.48,53.168z M5.258,8.289
	c-0.893,0-1.619,0.726-1.619,1.619v38c0,0.893,0.727,1.621,1.619,1.621H45.48c0.895,0,1.621-0.728,1.621-1.621v-38
	c0-0.893-0.727-1.619-1.621-1.619H5.258L5.258,8.289z"/>
<path fill="#4E4E4E" d="M12.736,13.342c-1.006,0-1.82-0.814-1.82-1.819V1.819C10.916,0.815,11.73,0,12.736,0
	s1.818,0.815,1.818,1.819v9.703C14.555,12.527,13.742,13.342,12.736,13.342L12.736,13.342z"/>
<path fill="#4E4E4E" d="M38.611,13.342c-1.006,0-1.82-0.814-1.82-1.819V1.819c0-1.004,0.814-1.819,1.82-1.819
	c1.004,0,1.818,0.815,1.818,1.819v9.703C40.43,12.527,39.615,13.342,38.611,13.342L38.611,13.342z"/>
<path fill="#4E4E4E" d="M25.674,13.342c-1.006,0-1.818-0.814-1.818-1.819V1.819C23.855,0.815,24.668,0,25.674,0
	c1.004,0,1.82,0.815,1.82,1.819v9.703C27.494,12.527,26.678,13.342,25.674,13.342L25.674,13.342z"/>
<g>
	<path fill="#4E4E4E" d="M30.533,20.626v12.252h2.178v3.593h-2.178v4.566h-4.301v-4.566h-8.807v-3.209
		c0.432-0.863,0.973-1.842,1.619-2.932c0.648-1.087,1.371-2.208,2.166-3.358c0.795-1.148,1.635-2.272,2.518-3.37
		c0.883-1.099,1.766-2.092,2.652-2.977H30.533z M26.232,25.989c-0.768,1.001-1.582,2.089-2.445,3.269
		c-0.863,1.176-1.59,2.385-2.18,3.621h4.625V25.989z"/>
</g>
</svg>
