<?xml version="1.0" encoding="utf-8"?>
<!-- Generator: Adobe Illustrator 14.0.0, SVG Export Plug-In . SVG Version: 6.00 Build 43363)  -->
<!DOCTYPE svg PUBLIC "-//W3C//DTD SVG 1.1//EN" "http://www.w3.org/Graphics/SVG/1.1/DTD/svg11.dtd">
<svg version="1.1" id="Calque_1" xmlns="http://www.w3.org/2000/svg" xmlns:xlink="http://www.w3.org/1999/xlink" x="0px" y="0px"
	 width="126.501px" height="126.5px" viewBox="0 0 126.501 126.5" enable-background="new 0 0 126.501 126.5" xml:space="preserve">
<circle fill="#28385c" cx="63.25" cy="63.25" r="63.25"/>
<g>
	<rect x="19.915" y="48.491" fill="#FFFFFF" width="12.143" height="29.517"/>
	<path fill="#FFFFFF" d="M19.915,37.043v9.106h14.486V80.35H19.915v9.106c0,2.271,1.844,4.111,4.111,4.111h78.449
		c2.27,0,4.109-1.841,4.109-4.111V37.043c0-2.269-1.84-4.11-4.109-4.11H24.026C21.759,32.933,19.915,34.774,19.915,37.043z
		 M49.634,63.25c0-6.905,5.594-12.503,12.502-12.503c6.904,0,12.504,5.598,12.504,12.503c0,6.907-5.6,12.503-12.504,12.503
		C55.228,75.753,49.634,70.157,49.634,63.25z M106.452,46.149v2.342H94.265v29.517h12.188v2.342H91.923V46.149H106.452z"/>
</g>
</svg>
