<?xml version="1.0" encoding="utf-8"?>
<!-- Generator: Adobe Illustrator 14.0.0, SVG Export Plug-In . SVG Version: 6.00 Build 43363)  -->
<!DOCTYPE svg PUBLIC "-//W3C//DTD SVG 1.1//EN" "http://www.w3.org/Graphics/SVG/1.1/DTD/svg11.dtd">
<svg version="1.1" id="Calque_1" xmlns="http://www.w3.org/2000/svg" xmlns:xlink="http://www.w3.org/1999/xlink" x="0px" y="0px"
	 width="131.855px" height="64.32px" viewBox="0 0 131.855 64.32" enable-background="new 0 0 131.855 64.32" xml:space="preserve">
<g>
	<polygon fill="#FFFFFF" points="85.307,3.5 83.58,3.5 59.823,50.043 50.955,32.693 65.844,3.5 59.576,3.5 47.781,26.506 
		36.066,3.5 29.719,3.5 44.607,32.693 35.821,50.043 12.064,3.5 5.719,3.5 35.006,60.82 36.635,60.82 47.781,38.887 59.008,60.82 
		60.635,60.82 85.307,12.402 	"/>
	<polygon fill="#FFFFFF" points="62.78,64.32 56.867,64.32 47.792,46.59 38.782,64.32 32.864,64.32 0,0 14.208,0 35.809,42.32 
		40.681,32.699 24.005,0 38.212,0 47.792,18.813 57.438,0 71.558,0 54.885,32.691 59.821,42.349 81.437,0 88.807,0 88.807,13.242 
		62.78,64.32 	"/>
</g>
<g>
	<path fill="#0088FF" d="M103.234,8.844v16.037h22.764v5.346h-22.764v30.551h-5.936V3.5h31.057v5.344H103.234z"/>
	<polygon fill="#006DFF" points="106.734,64.277 93.799,64.277 93.799,0 131.855,0 131.855,12.344 106.734,12.344 106.734,21.381 
		129.498,21.381 129.498,33.727 106.734,33.727 106.734,64.277 	"/>
</g>
</svg>
