<?xml version="1.0" encoding="utf-8"?>
<!-- Generator: Adobe Illustrator 14.0.0, SVG Export Plug-In . SVG Version: 6.00 Build 43363)  -->
<!DOCTYPE svg PUBLIC "-//W3C//DTD SVG 1.1//EN" "http://www.w3.org/Graphics/SVG/1.1/DTD/svg11.dtd">
<svg version="1.1" id="Calque_1" xmlns="http://www.w3.org/2000/svg" xmlns:xlink="http://www.w3.org/1999/xlink" x="0px" y="0px"
	 width="108.25px" height="69.5px" viewBox="0 0 108.25 69.5" enable-background="new 0 0 108.25 69.5" xml:space="preserve">
<path fill="#28385B" d="M25.236,50.906c-7.23,0-11.254-2.996-12.076-3.678c-1.685-0.008-6.694-0.243-6.968-2.722
	c-1.52-13.862,13.153-17.088,13.301-17.118l0.429-0.09l0.145,0.413c0.038,0.103,0.993,2.582,5.034,2.582l0.127-0.001l0.139,0.001
	c4.08,0,5.045-2.608,5.055-2.635l0.139-0.396l0.414,0.068c0.121,0.02,12.093,2.107,13.08,13.123c0.02,0.222-0.049,0.431-0.194,0.589
	c-0.281,0.308-0.766,0.349-1.203,0.349c-0.348,0-0.762-0.032-1.186-0.066c-0.416-0.034-0.842-0.068-1.217-0.068
	c-0.616,0-0.747,0.103-0.751,0.106c-0.238,2.376-1.868,5.468-1.937,5.599l-0.104,0.134C37.293,47.253,33.218,50.906,25.236,50.906
	L25.236,50.906z M19.318,28.457c-2.272,0.579-13.436,4.044-12.131,15.94c0.148,1.344,3.709,1.831,6.066,1.831h0.193l0.237,0.131
	c0.039,0.035,3.981,3.547,11.551,3.547h0.002c7.052,0,10.958-3.049,11.489-3.493c0.255-0.499,1.59-3.181,1.813-5.217
	c0.103-0.938,1.317-0.938,1.716-0.938c0.4,0,0.854,0.036,1.297,0.071c0.624,0.05,1.281,0.071,1.49,0.04
	c-0.931-9.162-9.888-11.561-11.862-11.979c-0.479,0.882-1.994,2.904-5.812,2.904l-0.138-0.001l-0.129,0.001
	C21.313,31.294,19.804,29.336,19.318,28.457L19.318,28.457z"/>
<g>
	<path fill="#28385B" d="M25.234,50.72c-7.348,0-11.34-3.11-12.007-3.677c-1.573-0.002-6.589-0.197-6.849-2.557
		C4.877,30.79,19.385,27.602,19.531,27.57l0.268-0.055l0.092,0.257c0.041,0.11,1.025,2.707,5.211,2.707h0.139h0.125
		c4.188,0,5.191-2.646,5.232-2.76l0.094-0.258l0.268,0.057c0.129,0.027,11.273,2.52,13.014,12.356
		c0.055,0.312-2.045-0.515-2.01-0.188c0.123,1.126-0.47,1.54-1.594,2.23c-3.458,2.125-5.06,4.228-4.812,4.52
		c-0.666,0.566-2.975,4.282-10.32,4.282H25.234L25.234,50.72z M37.004,46.412l-0.177-0.494c0.276-1.497,2.952-2.799,3.125-4.375
		c0.129-1.176,3.289-0.273,3.198-1.293c-0.86-9.656-10.323-11.627-12.075-12.06c-0.38,0.763-1.8,2.917-5.71,2.917l-0.127-0.001
		l-0.137,0.001c-3.898,0-5.307-2.107-5.687-2.864c-1.87,0.478-13.747,4.007-12.413,16.175c0.174,1.576,4.01,1.997,6.25,1.997
		l0.213-0.002l0.092,0.083c0.039,0.036,4.025,3.596,11.678,3.596h0.002c7.65,0,11.637-3.56,11.676-3.596L37.004,46.412
		L37.004,46.412z"/>
	<path fill="#28385B" d="M25.236,51.22c-7.096,0-11.152-2.843-12.189-3.678c-2.197-0.02-6.875-0.374-7.165-3.001
		c-1.543-14.074,13.394-17.428,13.545-17.46l0.697-0.143l0.238,0.666c0.034,0.091,0.927,2.375,4.74,2.375h0.264
		c3.838,0,4.727-2.331,4.762-2.43l0.243-0.667l0.692,0.146c0.116,0.024,11.601,2.575,13.402,12.759l0.041,0.229l-0.159,0.22
		c-0.149,0.177-0.36,0.239-0.705,0.194c-0.024,0.155-0.089,0.297-0.193,0.418c-0.306,0.355-0.854,0.426-1.456,0.467
		c-0.319,0.372-0.776,0.668-1.361,1.027c-0.219,0.135-0.431,0.27-0.635,0.403c-0.339,0.512-0.824,0.984-1.292,1.443
		c-0.586,0.572-1.19,1.163-1.355,1.699l0.24,0.668l-0.339,0.309c-0.01,0.009-1.31,1.195-3.91,2.238
		C31.21,50.508,28.485,51.22,25.236,51.22L25.236,51.22z M13.655,45.911l0.237,0.214c0.04,0.036,3.94,3.467,11.342,3.467
		c2.748,0,5.317-0.464,7.637-1.378c0.984-0.664,1.605-1.35,1.979-1.762c0.07-0.077,0.133-0.146,0.189-0.207
		c0.106-0.746,1.62-2.468,4.222-4.211c0.112-0.196,0.175-0.376,0.194-0.546c0.102-0.929,1.113-1.077,1.965-1.138
		c0.048-0.139,0.076-0.329,0.045-0.608l-0.024-0.223l0.162-0.21c0.181-0.201,0.464-0.236,0.9-0.154
		c-0.663-3.794-3.208-8.409-11.179-10.39c-0.604,0.971-2.252,2.842-5.959,2.842l-0.131-0.001l-0.129,0.001
		c-3.687,0-5.327-1.824-5.933-2.781c-2.871,0.809-12.889,4.447-11.673,15.537c0.096,0.87,2.623,1.552,5.753,1.552L13.655,45.911
		L13.655,45.911z M36.076,46.276l0.124,0.146c0.088-0.064,0.161-0.12,0.218-0.166l-0.106-0.297l0.009-0.051
		C36.205,46.06,36.124,46.184,36.076,46.276L36.076,46.276z"/>
</g>
<path fill="#28385B" d="M25.312,28.915L25.312,28.915l-0.086-0.001c-5.18-0.08-8.617-7.574-8.617-12.496
	c0-3.424,2.08-10.493,8.51-10.493l0.123,0.001c6.492,0.092,8.384,6.19,8.479,9.779c0.061,2.295-1.133,8.139-4.167,11.253
	C28.29,28.257,26.863,28.915,25.312,28.915L25.312,28.915z M25.119,6.925c-5.619,0-7.51,6.52-7.51,9.493
	c0,4.581,3.205,11.428,7.633,11.496l0.07,0.501v-0.5h0c1.271,0,2.456-0.557,3.525-1.654c2.697-2.77,3.943-8.243,3.883-10.528
	c-0.085-3.233-1.76-8.726-7.494-8.807L25.119,6.925L25.119,6.925z"/>
<g>
	<path fill="#28385B" d="M25.311,27.729l-0.082-0.001c-5.068-0.079-8.433-7.461-8.433-12.31c0-3.362,2.034-10.307,8.323-10.307
		l0.119,0.001c6.352,0.09,8.203,6.075,8.297,9.598c0.059,2.268-1.12,8.044-4.115,11.118C28.191,27.089,26.809,27.729,25.311,27.729
		L25.311,27.729z M25.119,5.738c-5.814,0-7.695,6.522-7.695,9.68c0,4.655,3.281,11.611,7.814,11.683h0.072
		c1.322,0,2.555-0.575,3.66-1.711c2.733-2.806,3.997-8.349,3.936-10.663c-0.086-3.299-1.801-8.903-7.678-8.987L25.119,5.738
		L25.119,5.738z"/>
	<path fill="#28385B" d="M25.311,28.729l-0.094-0.001c-5.752-0.09-9.421-7.942-9.421-13.31c0-3.689,2.279-11.307,9.323-11.307
		l0.127,0.001c7.114,0.101,9.185,6.692,9.288,10.571c0.064,2.489-1.16,8.519-4.398,11.843
		C28.712,27.987,27.088,28.729,25.311,28.729L25.311,28.729z M25.115,6.738c-5.055,0.004-6.691,5.849-6.691,8.68
		c0,4.16,2.933,10.621,6.83,10.683c1.1,0,2.09-0.474,3-1.408c2.503-2.569,3.708-7.836,3.653-9.939
		c-0.077-2.942-1.573-7.94-6.692-8.014L25.115,6.738L25.115,6.738z"/>
</g>
<path fill="#28385B" d="M25.166,34.923c4.189,0,7.744-2.153,9.508-5.763l-1.127-0.551c-1.572,3.215-4.627,5.059-8.381,5.059
	c-3.525,0-6.748-1.897-8.41-4.952l-1.103,0.602C17.536,32.774,21.182,34.923,25.166,34.923L25.166,34.923z"/>
<path fill="#28385B" d="M8.918,46.587l0.623-0.066c-0.064-0.611-0.098-1.234-0.098-1.853c0-6.711,3.172-11.787,8.277-13.245
	l-0.173-0.604c-5.386,1.538-8.732,6.845-8.732,13.849C8.815,45.309,8.85,45.954,8.918,46.587L8.918,46.587z"/>
<path fill="#28385B" d="M41.284,41.664c-0.819-5.441-3.894-9.44-8.428-10.735l-0.172,0.604c4.273,1.221,7.178,5.01,7.971,10.179
	C40.8,42.653,41.428,42.623,41.284,41.664z"/>
<path fill="#28385B" d="M32.855,31.277c0.02-0.646,0.51-1.137,0.51-1.137l1.02-1.158l2.178,1.295l3.06,2.295l2.021,2.452
	l1.471,2.628l0.549,2.707l-1.71,1.058l-0.918,0.982l-0.275-2.021l-0.706-1.98l-0.746-1.845l-1.314-1.804l-1.275-1.354l-1.078-0.844
	l-1.393-0.647L32.855,31.277z"/>
<path fill="#28385B" d="M17.457,31.277c-0.02-0.646-0.51-1.137-0.51-1.137l-1.02-1.158l-2.178,1.295l-3.06,2.295L8.67,35.024
	l-1.471,2.628L6.65,40.359l-0.158,3.491l0.668,1.472l1.255,0.647l0.706,0.137v-1.274l0.157-2.433l0.274-2.021l0.706-1.98
	l0.745-1.845l1.314-1.804l1.275-1.354l1.078-0.844l1.393-0.647L17.457,31.277z"/>
<path fill="#28385B" d="M83.01,50.906c-7.984,0-12.059-3.653-12.228-3.81l-0.104-0.134c-0.069-0.13-1.693-3.212-1.965-5.644
	c-0.017,0.008-0.182-0.062-0.723-0.062c-0.375,0-0.802,0.034-1.218,0.068c-0.424,0.034-0.838,0.066-1.186,0.066
	c-0.437,0-0.922-0.041-1.203-0.349c-0.145-0.158-0.213-0.367-0.194-0.589c0.987-11.016,12.959-13.104,13.08-13.123l0.413-0.068
	l0.14,0.396c0.038,0.104,1.012,2.635,5.055,2.635l0.124-0.001l0.143,0.001c4.04,0,4.995-2.479,5.034-2.585l0.148-0.405l0.425,0.085
	c0.148,0.03,14.821,3.256,13.301,17.118c-0.274,2.479-5.282,2.714-6.968,2.722C94.262,47.91,90.238,50.906,83.01,50.906
	L83.01,50.906z M71.519,46.413c0.531,0.443,4.436,3.493,11.489,3.493h0.002c7.569,0,11.513-3.512,11.552-3.547l0.146-0.133
	l0.198,0.002c0.001,0,0.002,0,0.003,0c2.443,0,6.001-0.488,6.149-1.831c1.305-11.896-9.859-15.361-12.132-15.94
	c-0.486,0.879-1.994,2.837-5.782,2.837l-0.141-0.001l-0.126,0.001c-3.819,0-5.334-2.022-5.813-2.904
	c-1.973,0.419-10.93,2.817-11.861,11.979c0.208,0.032,0.867,0.011,1.49-0.04c0.443-0.035,0.898-0.071,1.298-0.071
	c0.399,0,1.613,0,1.716,0.938C69.93,43.236,71.264,45.915,71.519,46.413L71.519,46.413z"/>
<g>
	<path fill="#28385B" d="M83.01,50.72h-0.002c-7.346,0-9.655-3.716-10.32-4.282c0.248-0.292-1.354-2.395-4.812-4.52
		c-1.124-0.69-1.717-1.104-1.594-2.23c0.035-0.327-2.065,0.499-2.01,0.188c1.74-9.837,12.885-12.329,13.014-12.356l0.268-0.057
		l0.094,0.258c0.041,0.113,1.045,2.76,5.232,2.76h0.125h0.139c4.186,0,5.17-2.597,5.211-2.707l0.092-0.257l0.268,0.055
		c0.146,0.031,14.654,3.22,13.152,16.916c-0.26,2.359-5.275,2.555-6.849,2.557C94.35,47.609,90.357,50.72,83.01,50.72L83.01,50.72z
		 M71.24,46.412l0.092,0.084c0.039,0.036,4.025,3.596,11.676,3.596h0.002c7.652,0,11.639-3.56,11.678-3.596l0.092-0.083l0.213,0.002
		c2.24,0,6.076-0.421,6.25-1.997c1.334-12.168-10.543-15.697-12.413-16.175c-0.38,0.757-1.788,2.864-5.687,2.864l-0.137-0.001
		l-0.127,0.001c-3.91,0-5.33-2.154-5.71-2.917c-1.752,0.433-11.215,2.403-12.075,12.06c-0.091,1.02,3.069,0.117,3.198,1.293
		c0.173,1.576,2.849,2.878,3.125,4.375L71.24,46.412L71.24,46.412z"/>
	<path fill="#28385B" d="M83.01,51.22c-3.25,0-5.976-0.712-8.104-2.115c-2.601-1.043-3.9-2.229-3.913-2.241l-0.336-0.306l0.24-0.668
		c-0.165-0.536-0.77-1.127-1.355-1.699c-0.469-0.459-0.953-0.932-1.292-1.443c-0.204-0.134-0.416-0.269-0.635-0.403
		c-0.585-0.359-1.042-0.655-1.361-1.027c-0.602-0.041-1.15-0.111-1.456-0.467c-0.104-0.121-0.169-0.263-0.193-0.418
		c-0.347,0.045-0.556-0.018-0.705-0.194l-0.15-0.179l0.032-0.271c1.801-10.184,13.286-12.734,13.402-12.759l0.692-0.146l0.242,0.666
		c0.036,0.1,0.925,2.431,4.763,2.431h0.264c3.813,0,4.706-2.284,4.742-2.381l0.235-0.66l0.693,0.142
		c0.155,0.033,15.092,3.387,13.549,17.461c-0.289,2.627-4.968,2.981-7.165,3.001C94.16,48.377,90.104,51.22,83.01,51.22L83.01,51.22
		z M75.373,48.214c2.32,0.914,4.888,1.378,7.635,1.378c7.404,0,11.305-3.431,11.344-3.466l0.237-0.215l0.408,0.004
		c3.125,0,5.652-0.682,5.748-1.552c1.216-11.09-8.803-14.729-11.673-15.537c-0.606,0.957-2.245,2.781-5.93,2.781l-0.141-0.001
		l-0.119,0.001c-3.711,0-5.359-1.871-5.963-2.842c-7.971,1.98-10.517,6.596-11.179,10.39c0.437-0.082,0.719-0.047,0.9,0.154
		l0.149,0.166l-0.011,0.266c-0.031,0.28-0.002,0.471,0.045,0.609c0.865,0.062,1.864,0.215,1.965,1.138
		c0.019,0.17,0.082,0.35,0.194,0.546c2.602,1.743,4.115,3.465,4.222,4.211c0.057,0.061,0.12,0.13,0.189,0.207
		C73.768,46.864,74.389,47.55,75.373,48.214L75.373,48.214z M71.827,46.257c0.057,0.045,0.13,0.102,0.218,0.166l0.124-0.146
		c-0.048-0.093-0.129-0.217-0.244-0.367l0.009,0.051L71.827,46.257L71.827,46.257z"/>
</g>
<path fill="#28385B" d="M82.933,28.915c-1.551,0-2.979-0.659-4.243-1.957c-3.033-3.114-4.227-8.959-4.166-11.253
	c0.095-3.589,1.987-9.688,8.479-9.779l0.122-0.001c6.43,0,8.51,7.069,8.51,10.493c0,4.922-3.437,12.416-8.617,12.496L82.933,28.915
	L82.933,28.915z M83.125,6.925l-0.108,0.001c-5.733,0.081-7.408,5.573-7.493,8.807c-0.061,2.285,1.186,7.758,3.883,10.527
	c1.069,1.099,2.256,1.655,3.526,1.655v0.5l0.069-0.501c4.428-0.068,7.633-6.915,7.633-11.496
	C90.635,13.444,88.744,6.925,83.125,6.925L83.125,6.925z"/>
<g>
	<path fill="#28385B" d="M82.934,27.729c-1.498,0-2.881-0.64-4.109-1.9c-2.995-3.074-4.174-8.851-4.115-11.118
		c0.094-3.522,1.945-9.508,8.297-9.598l0.119-0.001c6.289,0,8.323,6.944,8.323,10.307c0,4.849-3.364,12.23-8.433,12.31
		L82.934,27.729L82.934,27.729z M83.125,5.738l-0.109,0.001c-5.877,0.084-7.592,5.688-7.678,8.987
		c-0.062,2.314,1.202,7.857,3.936,10.663c1.105,1.136,2.338,1.711,3.66,1.711h0.072c4.533-0.071,7.814-7.027,7.814-11.683
		C90.82,12.261,88.939,5.738,83.125,5.738L83.125,5.738z"/>
	<path fill="#28385B" d="M82.934,28.729c-1.778,0-3.401-0.741-4.825-2.202c-3.239-3.324-4.463-9.354-4.399-11.842
		c0.103-3.88,2.174-10.472,9.283-10.572l0.125-0.001c7.052,0,9.331,7.617,9.331,11.307c0,5.367-3.669,13.22-9.417,13.31
		L82.934,28.729L82.934,28.729z M83.129,6.738l-0.104,0.001c-5.114,0.073-6.61,5.071-6.687,8.014
		c-0.057,2.104,1.148,7.37,3.651,9.938c0.91,0.936,1.9,1.409,2.944,1.409c3.954-0.062,6.887-6.522,6.887-10.683
		C89.82,12.587,88.185,6.742,83.129,6.738L83.129,6.738z"/>
</g>
<path fill="#28385B" d="M83.078,34.923c-4.189,0-7.744-2.153-9.508-5.763l1.127-0.551c1.572,3.215,4.627,5.059,8.381,5.059
	c3.525,0,6.748-1.897,8.41-4.952l1.103,0.602C90.708,32.774,87.062,34.923,83.078,34.923L83.078,34.923z"/>
<path fill="#28385B" d="M99.326,46.587l-0.623-0.066c0.064-0.611,0.098-1.234,0.098-1.853c0-6.711-3.172-11.787-8.277-13.245
	l0.173-0.604c5.386,1.538,8.732,6.845,8.732,13.849C99.429,45.309,99.395,45.954,99.326,46.587L99.326,46.587z"/>
<path fill="#28385B" d="M66.96,41.664c0.819-5.441,3.894-9.44,8.428-10.735l0.172,0.604c-4.273,1.221-7.178,5.01-7.971,10.179
	C67.444,42.653,66.816,42.623,66.96,41.664z"/>
<path fill="#28385B" d="M75.389,31.277c-0.02-0.646-0.51-1.137-0.51-1.137l-1.02-1.158l-2.178,1.295l-3.06,2.295l-2.021,2.452
	l-1.471,2.628l-0.549,2.707l1.71,1.058l0.918,0.982l0.275-2.021l0.706-1.98l0.746-1.845l1.314-1.804l1.275-1.354l1.078-0.844
	l1.393-0.647L75.389,31.277z"/>
<path fill="#28385B" d="M90.787,31.277c0.02-0.646,0.51-1.137,0.51-1.137l1.02-1.158l2.178,1.295l3.06,2.295l2.021,2.452
	l1.471,2.628l0.549,2.707l0.158,3.491l-0.668,1.472l-1.255,0.647l-0.706,0.137v-1.274l-0.157-2.433l-0.274-2.021l-0.706-1.98
	l-0.745-1.845l-1.314-1.804l-1.275-1.354l-1.078-0.844l-1.393-0.647L90.787,31.277z"/>
<path fill="#28385B" d="M54.416,64.556c-8.716,0-13.52-3.645-14.428-4.405c-1.962-0.006-7.961-0.267-8.281-3.172
	c-1.811-16.514,15.649-20.42,15.826-20.458l0.43-0.091l0.146,0.414c0.047,0.129,1.229,3.221,6.148,3.221l0.151-0.001l0.168,0.001
	c4.954,0,6.111-3.127,6.123-3.158l0.146-0.413l0.428,0.09c0.177,0.037,17.662,3.88,15.851,20.396
	c-0.319,2.905-6.319,3.166-8.281,3.172C67.935,60.911,63.132,64.556,54.416,64.556L54.416,64.556z M40.365,59.147l0.146,0.134
	c0.047,0.043,4.793,4.274,13.902,4.274h0.002c9.111,0,13.856-4.231,13.903-4.274l0.146-0.133l0.302,0.003
	c2.46,0,7.165-0.478,7.363-2.282c1.586-14.465-12.117-18.578-14.676-19.218c-0.528,0.994-2.286,3.413-6.877,3.413l-0.167-0.001
	l-0.153,0.001c-4.6,0-6.371-2.468-6.902-3.474c-2.563,0.65-16.239,4.817-14.653,19.278c0.198,1.805,4.902,2.282,7.362,2.282
	L40.365,59.147L40.365,59.147z"/>
<g>
	<path fill="#28385B" d="M54.416,64.431h-0.002c-8.799,0-13.583-3.726-14.38-4.403c-1.885-0.003-7.893-0.235-8.204-3.062
		C30.031,40.562,47.383,36.68,47.559,36.642l0.32-0.067l0.112,0.309c0.049,0.136,1.252,3.306,6.267,3.306h0.151h0.166
		c5.013,0,6.193-3.11,6.24-3.242l0.111-0.308l0.321,0.065c0.07,0.015,2.877,0.632,6.113,2.409
		c4.875,2.678,10.722,7.991,9.641,17.852c-0.312,2.826-6.318,3.06-8.204,3.062C67.999,60.705,63.216,64.431,54.416,64.431
		L54.416,64.431z M40.318,59.271l0.11,0.101c0.047,0.043,4.821,4.307,13.986,4.307h0.002c9.165,0,13.938-4.264,13.985-4.307
		l0.11-0.1l0.257,0.002c2.682,0,7.277-0.504,7.485-2.392c1.598-14.574-12.627-18.801-14.868-19.373
		c-0.454,0.906-2.142,3.431-6.811,3.431l-0.164-0.001l-0.153,0.001c-4.682,0-6.383-2.58-6.838-3.494
		c-2.319,0.572-16.46,4.683-14.842,19.437c0.208,1.888,4.802,2.392,7.484,2.392L40.318,59.271L40.318,59.271z"/>
	<path fill="#28385B" d="M54.416,64.931c-8.535,0-13.375-3.439-14.563-4.404c-2.59-0.021-8.181-0.426-8.519-3.507
		c-1.838-16.767,15.939-20.827,16.12-20.866l0.749-0.158l0.26,0.718c0.044,0.121,1.135,2.976,5.797,2.976h0.317
		c4.672,0,5.726-2.791,5.769-2.91l0.258-0.716l0.745,0.151c0.03,0.007,2.896,0.617,6.254,2.461c5.124,2.814,11,8.282,9.897,18.345
		c-0.34,3.081-5.93,3.486-8.52,3.507C67.789,61.491,62.949,64.931,54.416,64.931L54.416,64.931z M40.51,58.77l0.256,0.233
		c0.044,0.04,4.752,4.176,13.648,4.176c8.907,0,13.605-4.135,13.651-4.177l0.254-0.23l0.453,0.003c3.28,0,6.845-0.683,6.984-1.946
		C77.23,43.375,64.99,39.026,61.632,38.093c-0.681,1.11-2.607,3.348-7.057,3.348l-0.167-0.001l-0.147,0.001
		c-4.468,0-6.408-2.287-7.091-3.413c-3.355,0.904-15.591,5.161-14.095,18.801c0.139,1.265,3.704,1.946,6.987,1.946L40.51,58.77
		L40.51,58.77z"/>
</g>
<path fill="#28385B" d="M54.323,38.216c-1.829,0-3.515-0.778-5.01-2.313c-3.613-3.708-5.035-10.673-4.963-13.406
	c0.112-4.264,2.356-11.509,10.059-11.617l0.146-0.001c4.127,0,6.55,2.533,7.857,4.658c1.647,2.679,2.234,5.791,2.234,7.811
	c0,5.855-4.077,14.772-10.222,14.868L54.323,38.216L54.323,38.216z M54.555,11.878l-0.132,0.001
	c-6.945,0.098-8.971,6.736-9.073,10.643c-0.072,2.754,1.43,9.347,4.68,12.684c1.3,1.334,2.744,2.011,4.293,2.011v0.5l0.085-0.501
	c5.359-0.084,9.238-8.342,9.238-13.868C63.646,19.604,61.423,11.878,54.555,11.878L54.555,11.878z"/>
<g>
	<path fill="#28385B" d="M54.323,37.091c-1.794,0-3.45-0.766-4.921-2.275c-3.587-3.683-5-10.601-4.928-13.317
		c0.111-4.219,2.329-11.388,9.937-11.495l0.143-0.001c7.531,0,9.968,8.317,9.968,12.345c0,5.808-4.028,14.648-10.101,14.743
		L54.323,37.091L54.323,37.091z M54.554,10.753l-0.132,0.001c-7.038,0.101-9.092,6.813-9.196,10.765
		c-0.073,2.771,1.44,9.411,4.715,12.771c1.324,1.36,2.799,2.049,4.383,2.049h0.086c5.43-0.085,9.36-8.417,9.36-13.992
		C63.77,18.565,61.517,10.753,54.554,10.753L54.554,10.753z"/>
	<path fill="#28385B" d="M54.328,38.091h-0.005c-2.074,0-3.971-0.867-5.638-2.577c-3.84-3.942-5.289-11.091-5.211-14.042
		c0.121-4.575,2.557-12.351,10.922-12.469l0.15-0.001c8.294,0,10.975,8.99,10.975,13.345c0,6.349-4.318,15.638-11.085,15.743
		L54.328,38.091L54.328,38.091z M54.557,11.753l-0.128,0.001c-6.274,0.09-8.109,6.196-8.204,9.791
		c-0.067,2.549,1.396,8.933,4.432,12.047c1.128,1.159,2.362,1.747,3.667,1.747c4.85-0.074,8.447-7.933,8.447-12.992
		C62.77,18.891,60.762,11.756,54.557,11.753L54.557,11.753z"/>
</g>
<path fill="#28385B" d="M54.498,45.511c-5.019,0-9.276-2.579-11.389-6.902l1.351-0.66c1.882,3.851,5.541,6.06,10.038,6.06
	c4.158,0,7.965-2.206,9.982-5.769c0.031-0.054,0.061-0.108,0.091-0.163l1.32,0.721C63.636,42.938,59.271,45.511,54.498,45.511
	L54.498,45.511z"/>
<path fill="#28385B" d="M73.959,59.48l-0.749-0.079c0.079-0.732,0.118-1.479,0.118-2.219c0-8.038-3.798-14.118-9.913-15.864
	l0.206-0.723c6.452,1.842,10.458,8.198,10.458,16.587C74.08,57.949,74.038,58.723,73.959,59.48L73.959,59.48z"/>
<path fill="#28385B" d="M35.053,59.48c-0.082-0.754-0.122-1.527-0.122-2.298c0-8.326,3.968-14.632,10.355-16.456l0.207,0.723
	c-6.051,1.729-9.811,7.757-9.811,15.733c0,0.743,0.04,1.49,0.118,2.218L35.053,59.48L35.053,59.48z"/>
<path fill="#28385B" d="M45.288,41.144c-0.023-0.773-0.611-1.361-0.611-1.361l-1.222-1.387l-2.607,1.551l-3.665,2.749l-2.42,2.937
	L33,48.779l-0.657,3.242l-0.188,4.182l0.799,1.763l1.503,0.775l0.846,0.164v-1.526l0.188-2.914l0.329-2.42l0.846-2.372l0.893-2.209
	l1.574-2.16l1.527-1.621l1.292-1.011l1.668-0.775L45.288,41.144z"/>
<path fill="#28385B" d="M63.729,41.144c0.023-0.773,0.612-1.361,0.612-1.361l1.222-1.387l2.606,1.551l3.666,2.749l2.42,2.937
	l1.763,3.147l0.657,3.242l0.188,4.182l-0.798,1.763l-1.504,0.775l-0.846,0.164v-1.526l-0.188-2.914l-0.329-2.42l-0.846-2.372
	l-0.894-2.209l-1.573-2.16l-1.526-1.621l-1.293-1.011l-1.668-0.775L63.729,41.144z"/>
<g>
	<rect x="41.167" y="48.375" fill="none" width="26.125" height="13.375"/>
	<path fill="#28385B" d="M47.257,51.554c0.271-0.112,0.553-0.24,0.847-0.386c0.294-0.145,0.581-0.303,0.861-0.476
		s0.548-0.354,0.805-0.546c0.256-0.191,0.487-0.395,0.693-0.609h1.456v9.702h-2.086v-6.986c-0.28,0.188-0.593,0.357-0.938,0.512
		c-0.346,0.153-0.682,0.286-1.008,0.398L47.257,51.554z"/>
	<path fill="#28385B" d="M61.705,54.367c0,1.634-0.311,2.887-0.931,3.759c-0.621,0.873-1.477,1.31-2.569,1.31
		c-1.092,0-1.948-0.437-2.569-1.31c-0.621-0.872-0.931-2.125-0.931-3.759c0-0.812,0.082-1.53,0.245-2.156
		c0.163-0.625,0.399-1.152,0.707-1.582c0.308-0.429,0.676-0.756,1.106-0.979c0.429-0.225,0.91-0.336,1.442-0.336
		c1.092,0,1.948,0.437,2.569,1.309C61.395,51.495,61.705,52.743,61.705,54.367z M59.577,54.367c0-0.485-0.023-0.926-0.07-1.323
		c-0.047-0.396-0.121-0.739-0.224-1.028c-0.103-0.29-0.243-0.514-0.42-0.673c-0.177-0.158-0.396-0.237-0.658-0.237
		c-0.262,0-0.479,0.079-0.651,0.237c-0.173,0.159-0.313,0.383-0.42,0.673c-0.107,0.289-0.184,0.632-0.231,1.028
		c-0.047,0.397-0.07,0.838-0.07,1.323s0.023,0.929,0.07,1.33s0.124,0.747,0.231,1.036s0.248,0.514,0.42,0.672
		c0.172,0.159,0.389,0.238,0.651,0.238c0.261,0,0.48-0.079,0.658-0.238c0.177-0.158,0.317-0.383,0.42-0.672
		c0.103-0.289,0.177-0.635,0.224-1.036S59.577,54.853,59.577,54.367z"/>
</g>
<g>
	<rect x="70.668" y="36.042" fill="none" width="26.125" height="13.375"/>
	<path fill="#28385B" d="M81.742,46.906c0.056-0.682,0.172-1.391,0.35-2.128s0.395-1.461,0.65-2.17
		c0.258-0.709,0.545-1.379,0.861-2.009c0.317-0.63,0.64-1.174,0.967-1.632h-4.215V37.19h6.791v1.512
		c-0.299,0.327-0.629,0.779-0.988,1.358c-0.359,0.578-0.699,1.234-1.021,1.967s-0.602,1.519-0.84,2.359
		c-0.238,0.84-0.385,1.68-0.441,2.52H81.742z"/>
</g>
<g>
	<rect x="12.334" y="36.042" fill="none" width="26.125" height="13.375"/>
	<path fill="#28385B" d="M26.488,43.057c-0.196,0.093-0.413,0.16-0.651,0.202s-0.441,0.063-0.609,0.063
		c-0.607,0-1.125-0.072-1.554-0.217s-0.782-0.351-1.057-0.616s-0.478-0.586-0.609-0.959s-0.196-0.784-0.196-1.232
		c0-0.373,0.063-0.756,0.189-1.147c0.126-0.393,0.324-0.749,0.595-1.071c0.271-0.322,0.614-0.588,1.029-0.798
		c0.415-0.21,0.917-0.315,1.505-0.315c1.204,0,2.112,0.371,2.723,1.113c0.611,0.742,0.917,1.809,0.917,3.199
		c0,0.915-0.119,1.722-0.357,2.422c-0.238,0.7-0.607,1.288-1.106,1.764c-0.5,0.477-1.137,0.838-1.911,1.085
		c-0.775,0.248-1.694,0.376-2.758,0.386c-0.009-0.299-0.023-0.588-0.042-0.868c-0.019-0.28-0.037-0.569-0.056-0.868
		c0.532-0.009,1.013-0.049,1.442-0.119s0.807-0.187,1.134-0.35s0.604-0.381,0.833-0.651C26.178,43.808,26.357,43.467,26.488,43.057z
		 M25.466,41.698c0.215,0,0.438-0.021,0.672-0.063c0.233-0.042,0.406-0.1,0.518-0.175v-0.126c0-0.037,0.002-0.074,0.007-0.111
		c0.004-0.037,0.007-0.07,0.007-0.099c-0.009-0.336-0.038-0.65-0.084-0.944c-0.047-0.295-0.126-0.551-0.238-0.771
		c-0.112-0.219-0.264-0.392-0.455-0.518c-0.191-0.126-0.427-0.189-0.707-0.189c-0.224,0-0.42,0.047-0.588,0.14
		c-0.168,0.094-0.304,0.215-0.406,0.364c-0.103,0.149-0.18,0.313-0.231,0.49c-0.051,0.178-0.077,0.35-0.077,0.518
		c0,0.504,0.124,0.878,0.371,1.12C24.502,41.577,24.906,41.698,25.466,41.698z"/>
</g>
</svg>
