<?xml version="1.0" encoding="utf-8"?>
<!-- Generator: Adobe Illustrator 14.0.0, SVG Export Plug-In . SVG Version: 6.00 Build 43363)  -->
<!DOCTYPE svg PUBLIC "-//W3C//DTD SVG 1.1//EN" "http://www.w3.org/Graphics/SVG/1.1/DTD/svg11.dtd">
<svg version="1.1" id="Calque_1" xmlns="http://www.w3.org/2000/svg" xmlns:xlink="http://www.w3.org/1999/xlink" x="0px" y="0px"
	 width="53.83px" height="53.63px" viewBox="0 0 53.83 53.63" enable-background="new 0 0 53.83 53.63" xml:space="preserve">
<g>
	<path fill="#919191" d="M7.141,17.842c-0.099,0.145-0.054,0.486,0.036,0.476c0.315-0.037,8.635-8.059,18.51-6.601
		c9.871,1.457,12.432,10,13.203,9.945c0.188-0.014,1.531-0.275,1.723-0.672c0.742-1.552-0.496-5.446-0.758-7.426
		c-0.344-2.61-1.133-2.352-3.219-3.628C24.074,2.255,8.845,15.337,7.141,17.842z"/>
	<path fill="#919191" d="M7.112,17.894c0,0,9.346-8.303,19.219-6.845c9.871,1.456,13.295,10.201,14.066,10.146
		c0.771-0.056,0.447-5.689,0.102-8.299c-0.342-2.611-0.076-3.463-2.164-4.739C25.445,0.274,11.347,7.915,7.112,17.894z"/>
	<path opacity="0.8" fill="#919191" enable-background="new    " d="M25.632,5.006C17.447,5.611,9.953,11.16,7.174,17.788
		c0,0,9.365-8.257,18.841-6.751c8.02,1.273,13.064,6.935,13.795,6.909c0.73-0.025,0.762-3.209,0.533-5.667
		c-0.23-2.459-0.279-2.939-2.262-4.114C34.091,5.803,29.781,4.698,25.632,5.006z"/>
	<path opacity="0.31" fill="#919191" enable-background="new    " d="M25.632,5.006C17.447,5.611,9.953,11.16,7.174,17.788
		c0,0,9.365-8.257,18.841-6.751c8.02,1.273,13.064,6.935,13.795,6.909c0.73-0.025,0.762-3.209,0.533-5.667
		c-0.23-2.459-0.279-2.939-2.262-4.114C34.091,5.803,29.781,4.698,25.632,5.006z"/>
	<path fill="#919191" d="M28.593,48.591c0.174,0.015,0.447-0.19,0.395-0.264c-0.188-0.255-11.18-3.538-14.734-12.787
		c-3.555-9.248,2.613-15.45,2.189-16.09c-0.104-0.155-1.012-1.371-1.449-1.341c-1.705,0.112-4.469,3.085-6.052,4.276
		c-2.09,1.571-1.481,2.126-1.567,4.552C6.857,41.549,25.597,48.339,28.593,48.591z"/>
	<path fill="#919191" d="M28.652,48.59c0,0-11.738-4.034-15.291-13.284c-3.554-9.247,2.338-16.472,1.914-17.112
		c-0.424-0.639-5.137,2.388-7.226,3.958c-2.09,1.571-2.957,1.757-3.044,4.184C4.475,41.328,17.957,49.795,28.652,48.59z"/>
	<path opacity="0.8" fill="#919191" enable-background="new    " d="M8.476,38.858c4.514,6.784,12.967,10.56,20.053,9.732
		c0,0-11.707-4.074-15.025-13.004c-2.809-7.556-0.373-14.678-0.75-15.298s-3.147,0.906-5.162,2.302
		c-2.015,1.396-2.407,1.674-2.455,3.961C5.041,31.153,6.188,35.42,8.476,38.858z"/>
	<path opacity="0.31" fill="#919191" enable-background="new    " d="M8.476,38.858c4.514,6.784,12.967,10.56,20.053,9.732
		c0,0-11.707-4.074-15.025-13.004c-2.809-7.556-0.373-14.678-0.75-15.298s-3.147,0.906-5.162,2.302
		c-2.015,1.396-2.407,1.674-2.455,3.961C5.041,31.153,6.188,35.42,8.476,38.858z"/>
	<path fill="#919191" d="M42.662,8.718c5.732,4.945,9.514,11.205,11.168,17.636c-0.232-7.323-3.412-14.529-9.396-19.69
		c-5.986-5.161-13.58-7.246-20.857-6.399C30.179,0.955,36.929,3.773,42.662,8.718z"/>
	<path opacity="0.34" fill="#919191" enable-background="new    " d="M42.662,8.638c5.732,4.945,9.514,11.205,11.168,17.635
		c-0.232-7.322-3.412-14.528-9.396-19.69c-5.986-5.162-13.58-7.247-20.857-6.4C30.179,0.874,36.929,3.692,42.662,8.638z"/>
	<path fill="#919191" d="M53.773,25.208c-0.494-6.952-3.645-13.713-9.34-18.624c-2.432-2.099-5.133-3.688-7.967-4.78
		c3.418,2.126,6.59,4.921,9.297,8.35c2.082,2.642,3.748,5.455,4.992,8.346c1.326,2.411,2.334,4.92,3.01,7.459
		C53.771,25.709,53.773,25.459,53.773,25.208z"/>
	<path fill="#919191" d="M36.199,48.974c-6.982,2.929-14.271,3.522-20.766,2.137c6.658,3.056,14.525,3.422,21.814,0.365
		c7.289-3.056,12.541-8.926,15.027-15.817C48.712,41.261,43.181,46.046,36.199,48.974z"/>
	<path opacity="0.34" fill="#919191" enable-background="new    " d="M36.271,49.01C29.289,51.939,22,52.532,15.507,51.146
		c6.656,3.057,14.525,3.423,21.812,0.366c7.289-3.056,12.541-8.925,15.027-15.818C48.785,41.298,43.253,46.082,36.271,49.01z"/>
	<path opacity="0.59" fill="#919191" enable-background="new    " d="M16.486,51.571c6.441,2.656,13.9,2.851,20.834-0.059
		c2.963-1.242,5.59-2.95,7.83-5.002c-3.428,2.113-7.342,3.708-11.617,4.601c-3.295,0.688-6.555,0.925-9.699,0.75
		c-2.75,0.113-5.443-0.104-8.018-0.631C16.039,51.346,16.261,51.459,16.486,51.571z"/>
	<path fill="#919191" d="M2.891,24.648c0.719-7.539,3.639-14.242,7.927-19.31C4.979,9.763,0.939,16.523,0.19,24.392
		c-0.749,7.867,1.942,15.269,6.843,20.716C3.776,39.321,2.173,32.185,2.891,24.648z"/>
	<path opacity="0.34" fill="#919191" enable-background="new    " d="M2.824,24.695c0.719-7.537,3.639-14.241,7.927-19.31
		C4.912,9.809,0.872,16.57,0.124,24.438c-0.749,7.869,1.942,15.27,6.843,20.717C3.71,39.368,2.106,32.233,2.824,24.695z"/>
	<path opacity="0.69" fill="#919191" enable-background="new    " d="M9.915,6.047C4.53,10.47,0.836,16.953,0.124,24.438
		c-0.305,3.2-0.04,6.32,0.711,9.265c-0.245-4.02,0.2-8.223,1.433-12.413c0.949-3.229,2.281-6.215,3.921-8.903
		c1.199-2.477,2.663-4.75,4.344-6.768C10.324,5.759,10.119,5.902,9.915,6.047z"/>
	<path fill="#919191" d="M45.146,14.887c-0.072-0.159-0.383-0.3-0.42-0.218C44.591,14.954,47,26.172,40.601,33.737
		c-6.4,7.565-14.947,5.25-15.305,5.929c-0.084,0.164-0.57,1.436-0.334,1.804c0.92,1.441,4.854,2.434,6.66,3.251
		c2.383,1.077,2.576,0.276,4.746-0.816C49.425,37.332,46.367,17.637,45.146,14.887z"/>
	<path fill="#919191" d="M45.117,14.837c0,0,2.107,12.229-4.291,19.795c-6.4,7.564-15.566,5.871-15.926,6.551
		c-0.355,0.681,4.566,3.356,6.947,4.433c2.383,1.077,2.963,1.747,5.131,0.654C50.378,39.525,51.318,23.634,45.117,14.837z"/>
	<path opacity="0.8" fill="#919191" enable-background="new    " d="M46.289,37.207c3.777-7.22,3.021-16.447-1.113-22.262
		c0,0,2.059,12.223-4.174,19.428c-5.275,6.096-12.689,7.387-13.053,8.016c-0.361,0.629,2.307,2.324,4.5,3.417
		c2.193,1.094,2.627,1.304,4.654,0.247C41.185,43.924,44.375,40.866,46.289,37.207z"/>
	<path opacity="0.31" fill="#919191" enable-background="new    " d="M46.289,37.207c3.777-7.22,3.021-16.447-1.113-22.262
		c0,0,2.059,12.223-4.174,19.428c-5.275,6.096-12.689,7.387-13.053,8.016c-0.361,0.629,2.307,2.324,4.5,3.417
		c2.193,1.094,2.627,1.304,4.654,0.247C41.185,43.924,44.375,40.866,46.289,37.207z"/>
</g>
</svg>
