<?xml version="1.0" encoding="utf-8"?>
<!-- Generator: Adobe Illustrator 14.0.0, SVG Export Plug-In . SVG Version: 6.00 Build 43363)  -->
<!DOCTYPE svg PUBLIC "-//W3C//DTD SVG 1.1//EN" "http://www.w3.org/Graphics/SVG/1.1/DTD/svg11.dtd">
<svg version="1.1" id="Calque_1" xmlns="http://www.w3.org/2000/svg" xmlns:xlink="http://www.w3.org/1999/xlink" x="0px" y="0px"
	 width="93.375px" height="56.782px" viewBox="0 0 93.375 56.782" enable-background="new 0 0 93.375 56.782" xml:space="preserve">
<g>
	<path fill="#28385B" d="M85.875,6.032h-78.5c-0.276,0-0.5-0.224-0.5-0.5s0.224-0.5,0.5-0.5h78.5c0.276,0,0.5,0.224,0.5,0.5
		S86.151,6.032,85.875,6.032L85.875,6.032z"/>
	<path fill="#28385B" d="M85.875,7.032h-78.5c-0.827,0-1.5-0.673-1.5-1.5s0.673-1.5,1.5-1.5h78.5c0.827,0,1.5,0.673,1.5,1.5
		S86.702,7.032,85.875,7.032L85.875,7.032z"/>
</g>
<g>
	<path fill="#28385B" d="M69.893,52.089c-0.102,0-0.203-0.031-0.29-0.093L46.688,35.69L23.772,51.996
		c-0.153,0.108-0.353,0.123-0.52,0.037c-0.166-0.086-0.271-0.257-0.271-0.444V5.532c0-0.276,0.224-0.5,0.5-0.5h46.41
		c0.276,0,0.5,0.224,0.5,0.5v46.057c0,0.188-0.104,0.358-0.271,0.444C70.05,52.07,69.971,52.089,69.893,52.089L69.893,52.089z
		 M47.142,34.833l22.415,15.949l-0.164-44.75h-45.41l0.164,44.75l22.415-15.949C46.828,34.642,47.055,34.771,47.142,34.833z"/>
	<path fill="#28385B" d="M69.893,53.089c-0.312,0-0.612-0.096-0.868-0.276L46.688,36.918L24.353,52.811
		c-0.457,0.323-1.069,0.362-1.558,0.112c-0.502-0.261-0.812-0.771-0.812-1.334V5.532c0-0.827,0.673-1.5,1.5-1.5h46.41
		c0.827,0,1.5,0.673,1.5,1.5v46.057c0,0.562-0.311,1.073-0.811,1.332C70.367,53.031,70.13,53.089,69.893,53.089L69.893,53.089z
		 M24.986,7.032l0.153,41.816l20.842-14.83c0.52-0.372,1.213-0.373,1.738-0.002l20.83,14.821L68.396,7.032H24.986L24.986,7.032z"/>
</g>
<g>
	<polygon fill="#28385B" points="26.834,43.24 46.688,29.035 46.688,21.672 26.834,35.879 	"/>
	<polygon fill="#28385B" points="46.699,21.672 46.699,29.035 66.553,43.24 66.553,35.879 	"/>
</g>
</svg>
