<?xml version="1.0" encoding="utf-8"?>
<!-- Generator: Adobe Illustrator 14.0.0, SVG Export Plug-In . SVG Version: 6.00 Build 43363)  -->
<!DOCTYPE svg PUBLIC "-//W3C//DTD SVG 1.1//EN" "http://www.w3.org/Graphics/SVG/1.1/DTD/svg11.dtd">
<svg version="1.1" id="Calque_1" xmlns="http://www.w3.org/2000/svg" xmlns:xlink="http://www.w3.org/1999/xlink" x="0px" y="0px"
	 width="93.667px" height="77.334px" viewBox="0 0 93.667 77.334" enable-background="new 0 0 93.667 77.334" xml:space="preserve">
<g>
	<path fill="#919191" d="M47.465,72.5c-0.003,0-0.006,0-0.009,0c-0.178-0.003-0.341-0.101-0.428-0.256l-5.859-10.482
		C19.582,59.87,3.336,47.412,3.336,32.71c0-16.156,19.521-29.3,43.516-29.3s43.516,13.144,43.516,29.3
		c0,14.31-15.128,26.422-36.005,28.863l-6.47,10.686C47.802,72.409,47.64,72.5,47.465,72.5L47.465,72.5z M46.852,4.41
		c-23.443,0-42.516,12.695-42.516,28.3c0,14.238,15.984,26.31,37.182,28.078c0.165,0.014,0.313,0.109,0.395,0.254l5.57,9.964
		l6.151-10.16c0.08-0.133,0.218-0.221,0.371-0.238c20.49-2.316,35.362-14.049,35.362-27.897C89.367,17.105,70.295,4.41,46.852,4.41
		L46.852,4.41z"/>
	<path fill="#919191" d="M47.465,73.5h-0.009c-0.549-0.009-1.04-0.303-1.301-0.768l-5.603-10.023
		C18.728,60.615,2.336,47.783,2.336,32.71c0-16.707,19.97-30.3,44.516-30.3s44.516,13.593,44.516,30.3
		c0,14.688-15.279,27.165-36.401,29.798l-6.218,10.269C48.479,73.223,47.987,73.5,47.465,73.5L47.465,73.5z M46.852,5.41
		c-22.892,0-41.516,12.247-41.516,27.3c0,13.714,15.591,25.356,36.265,27.082c0.497,0.041,0.939,0.325,1.184,0.761l4.732,8.466
		l5.262-8.69c0.237-0.395,0.653-0.661,1.112-0.714c19.978-2.259,34.477-13.573,34.477-26.904C88.367,17.657,69.743,5.41,46.852,5.41
		L46.852,5.41z"/>
</g>
<g>
	<path fill="#919191" d="M47.292,47.241c-11.891,0-18.833-2.5-27-6.834c2,7.5,12.912,11.667,27,11.667"/>
	<path fill="#919191" d="M47.249,47.241c11.891,0,18.833-2.5,27-6.834c-2,7.5-12.912,11.667-27,11.667V47.241z"/>
</g>
</svg>
