<?xml version="1.0" encoding="utf-8"?>
<!-- Generator: Adobe Illustrator 14.0.0, SVG Export Plug-In . SVG Version: 6.00 Build 43363)  -->
<!DOCTYPE svg PUBLIC "-//W3C//DTD SVG 1.1//EN" "http://www.w3.org/Graphics/SVG/1.1/DTD/svg11.dtd">
<svg version="1.1" id="Calque_1" xmlns="http://www.w3.org/2000/svg" xmlns:xlink="http://www.w3.org/1999/xlink" x="0px" y="0px"
	 width="77.539px" height="52.562px" viewBox="0 0 77.539 52.562" enable-background="new 0 0 77.539 52.562" xml:space="preserve">
<path fill="#ffffff" d="M51.796,45.334c-0.014,2.064,0.027,4.401,0.789,4.72c1.105,0.459,1.338,0.48,1.848,0.258
	c0.666-0.287,1.469-2.267,2.148-3.968C56.97,45.372,51.803,44.403,51.796,45.334z"/>
<path fill="#ffffff" d="M63.938,47.875c-0.003,1.948,0.081,3.994,0.79,4.29c1.104,0.461,1.338,0.48,1.848,0.26
	c0.662-0.287,1.462-2.254,2.141-3.952C69.108,47.494,63.939,46.788,63.938,47.875z"/>
<path fill="#ffffff" d="M40.518,41.166c-0.018,2.212-0.081,5.163,0.782,5.522c1.105,0.459,1.338,0.48,1.85,0.258
	c0.668-0.289,1.474-2.282,2.156-3.988C45.691,41.995,40.523,40.545,40.518,41.166z"/>
<path fill="#ffffff" d="M13.908,29.01c-0.322,2.173-0.761,4.994,0.03,5.46c1.029,0.609,1.258,0.662,1.795,0.514
	c0.695-0.192,1.754-2.021,2.659-3.607C18.917,30.456,14.005,28.35,13.908,29.01z"/>
<path fill="#ffffff" d="M5.846,27.334c-1.196-0.548-2.298-1.36-2.397-0.953c-0.506,2.069-1.081,4.548-0.382,5.054
	c0.971,0.701,1.193,0.775,1.74,0.676c0.755-0.136,2.095-2.079,3.183-3.63C8.249,28.112,6.996,27.862,5.846,27.334z"/>
<g>
	<path fill="#ffffff" d="M70.214,49.294c-0.209,0-0.424-0.002-0.641-0.006c-4.199-0.096-12.611-1.863-17.533-3.393
		c-4.543-1.408-14.412-5.336-19.715-7.445l-1.92-0.764c-5.234-2.074-16.847-8.061-17.339-8.314c-0.805-0.414-1.57-0.6-2.48-0.6
		c-0.494,0-1,0.051-1.533,0.105c-0.605,0.062-1.232,0.125-1.926,0.125c-0.34,0-0.66-0.014-0.982-0.045
		c-3.23-0.312-3.916-3.229-4.324-4.973c-0.039-0.168-0.078-0.33-0.117-0.486c-0.127-0.512-0.346-0.928-0.6-1.41
		C0.611,21.155,0,19.993,0,17.876c0-2.973,1.107-5.211,3.703-7.482c2.211-1.935,4.412-6.019,5.135-7.361
		C10.188,0.526,11.779,0,12.877,0c0.332,0,0.664,0.05,0.984,0.148c1.713,0.526,1.965,2.971,2.256,5.799l0.066,0.642
		c0.189,1.771,3.367,3.752,6.537,4.077c0.279,0.028,0.576,0.043,0.883,0.043c2.271,0,4.644-0.782,5.578-1.126
		c0.723-1.699,2.684-4.263,6.145-4.113c2.584,0.107,3.379,3.273,3.533,4.587c2.131,2.158,20.734,18.946,23.543,21.052
		c1.16,0.871,2.629,1.871,4.184,2.93c2.146,1.461,4.365,2.971,5.887,4.229c0.258,0.215,0.514,0.424,0.766,0.629
		c2.348,1.904,4.564,3.705,4.275,6.795C77.289,48.083,74.833,49.294,70.214,49.294L70.214,49.294z M10.586,26.661
		c1.248,0,2.344,0.266,3.449,0.834c0.486,0.254,12.012,6.193,17.15,8.229l1.922,0.764c5.275,2.1,15.096,6.008,19.559,7.393
		c5.299,1.645,13.381,3.215,16.957,3.297c0.199,0.004,0.398,0.006,0.592,0.006c3.154,0,5.096-0.631,5.195-1.689
		c0.176-1.873-1.146-3.047-3.502-4.959c-0.258-0.209-0.52-0.422-0.783-0.641c-1.443-1.195-3.621-2.676-5.729-4.111
		c-1.574-1.072-3.062-2.084-4.262-2.984c-1.49-1.117-7.961-6.85-13.049-11.418C36.779,11.226,36.779,11.083,36.779,10.484
		c-0.021-0.489-0.488-2.86-1.539-2.905c-3.111-0.122-4.188,3.008-4.23,3.141l-0.15,0.457l-0.445,0.192
		c-0.139,0.06-3.476,1.452-6.81,1.452c-0.377,0-0.748-0.02-1.098-0.055c-3.801-0.391-8.092-2.875-8.422-5.953l-0.068-0.649
		c-0.129-1.263-0.371-3.603-0.811-4.007c-0.834-0.233-1.742,0.453-2.51,1.877c-2.088,3.877-3.92,6.479-5.6,7.948
		c-2.119,1.854-2.984,3.562-2.984,5.894c0,1.596,0.398,2.354,0.861,3.23c0.289,0.553,0.59,1.123,0.779,1.881
		c0.041,0.164,0.082,0.338,0.125,0.516c0.451,1.924,0.865,3.197,2.471,3.354c0.803,0.078,1.684,0.004,2.49-0.08
		C9.402,26.72,9.984,26.661,10.586,26.661L10.586,26.661z"/>
</g>
<path fill="#ffffff" d="M40.16,21.724c-0.186,0-0.373-0.064-0.523-0.197c-0.328-0.289-0.359-0.789-0.07-1.117
	c1.885-2.139,2.057-4.658,1.713-5.83c-0.123-0.42,0.117-0.86,0.537-0.984c0.42-0.122,0.859,0.118,0.982,0.537
	c0.381,1.299,0.445,4.498-2.045,7.324C40.597,21.634,40.378,21.724,40.16,21.724L40.16,21.724z"/>
<path fill="#ffffff" d="M18.959,11.749c-7.879-4.158-13.131-0.438-15.1,0.656s5.252-7.222,5.252-7.222l2.625-3.501l1.814-0.524
	l1.25,4.464l1.314,2.844L18.959,11.749z"/>
<path fill="#ffffff" d="M62.855,41.688c-7.027,0-14.309-3.223-21.154-9.49C18.471,10.932,2.492,19.8,2.334,19.892L1.01,17.61
	c0.715-0.416,17.83-9.922,42.474,12.641c8.877,8.127,18.432,10.732,26.902,7.332c0.25-0.102,0.4-0.162,0.553-0.199l0.639,2.561
	c-0.008,0.006-0.094,0.041-0.209,0.088C68.607,41.142,65.751,41.688,62.855,41.688L62.855,41.688z"/>
<path fill="#ffffff" d="M44.119,25.683c-0.186,0-0.373-0.064-0.523-0.197c-0.326-0.289-0.359-0.789-0.07-1.117
	c1.885-2.139,2.057-4.658,1.713-5.83c-0.123-0.42,0.117-0.859,0.537-0.982s0.859,0.117,0.984,0.537
	c0.379,1.297,0.443,4.498-2.045,7.322C44.556,25.593,44.339,25.683,44.119,25.683L44.119,25.683z"/>
<path fill="#ffffff" d="M47.947,29.247c-0.186,0-0.373-0.064-0.523-0.197c-0.328-0.289-0.359-0.789-0.07-1.117
	c1.885-2.141,2.057-4.658,1.713-5.83c-0.123-0.42,0.117-0.859,0.537-0.984c0.418-0.123,0.859,0.117,0.982,0.537
	c0.381,1.297,0.445,4.498-2.045,7.324C48.384,29.155,48.166,29.247,47.947,29.247L47.947,29.247z"/>
<path fill="#ffffff" d="M52.169,32.679c-0.186,0-0.371-0.064-0.523-0.197c-0.326-0.289-0.359-0.789-0.07-1.117
	c1.885-2.141,2.059-4.658,1.713-5.83c-0.123-0.42,0.117-0.861,0.537-0.984s0.859,0.117,0.984,0.537
	c0.379,1.297,0.443,4.498-2.045,7.324C52.609,32.587,52.39,32.679,52.169,32.679L52.169,32.679z"/>
</svg>
